<?xml version="1.0" encoding="utf-8"?>
<svg xmlns="http://www.w3.org/2000/svg" xmlns:xlink="http://www.w3.org/1999/xlink" width="600" height="400" viewBox="0 0 2400 1600">
<defs>
  <clipPath id="clip240">
    <rect x="0" y="0" width="2400" height="1600"/>
  </clipPath>
</defs>
<path clip-path="url(#clip240)" d="
M0 1600 L2400 1600 L2400 0 L0 0  Z
  " fill="#ffffff" fill-rule="evenodd" fill-opacity="1"/>
<defs>
  <clipPath id="clip241">
    <rect x="480" y="0" width="1681" height="1600"/>
  </clipPath>
</defs>
<path clip-path="url(#clip240)" d="
M148.057 1423.18 L2352.76 1423.18 L2352.76 47.2441 L148.057 47.2441  Z
  " fill="#ffffff" fill-rule="evenodd" fill-opacity="1"/>
<defs>
  <clipPath id="clip242">
    <rect x="148" y="47" width="2206" height="1377"/>
  </clipPath>
</defs>
<polyline clip-path="url(#clip242)" style="stroke:#000000; stroke-linecap:butt; stroke-linejoin:round; stroke-width:2; stroke-opacity:0.1; fill:none" points="
  200.002,1423.18 200.002,47.2441 
  "/>
<polyline clip-path="url(#clip242)" style="stroke:#000000; stroke-linecap:butt; stroke-linejoin:round; stroke-width:2; stroke-opacity:0.1; fill:none" points="
  722.591,1423.18 722.591,47.2441 
  "/>
<polyline clip-path="url(#clip242)" style="stroke:#000000; stroke-linecap:butt; stroke-linejoin:round; stroke-width:2; stroke-opacity:0.1; fill:none" points="
  1245.18,1423.18 1245.18,47.2441 
  "/>
<polyline clip-path="url(#clip242)" style="stroke:#000000; stroke-linecap:butt; stroke-linejoin:round; stroke-width:2; stroke-opacity:0.1; fill:none" points="
  1767.77,1423.18 1767.77,47.2441 
  "/>
<polyline clip-path="url(#clip242)" style="stroke:#000000; stroke-linecap:butt; stroke-linejoin:round; stroke-width:2; stroke-opacity:0.1; fill:none" points="
  2290.36,1423.18 2290.36,47.2441 
  "/>
<polyline clip-path="url(#clip240)" style="stroke:#000000; stroke-linecap:butt; stroke-linejoin:round; stroke-width:4; stroke-opacity:1; fill:none" points="
  148.057,1423.18 2352.76,1423.18 
  "/>
<polyline clip-path="url(#clip240)" style="stroke:#000000; stroke-linecap:butt; stroke-linejoin:round; stroke-width:4; stroke-opacity:1; fill:none" points="
  200.002,1423.18 200.002,1404.28 
  "/>
<polyline clip-path="url(#clip240)" style="stroke:#000000; stroke-linecap:butt; stroke-linejoin:round; stroke-width:4; stroke-opacity:1; fill:none" points="
  722.591,1423.18 722.591,1404.28 
  "/>
<polyline clip-path="url(#clip240)" style="stroke:#000000; stroke-linecap:butt; stroke-linejoin:round; stroke-width:4; stroke-opacity:1; fill:none" points="
  1245.18,1423.18 1245.18,1404.28 
  "/>
<polyline clip-path="url(#clip240)" style="stroke:#000000; stroke-linecap:butt; stroke-linejoin:round; stroke-width:4; stroke-opacity:1; fill:none" points="
  1767.77,1423.18 1767.77,1404.28 
  "/>
<polyline clip-path="url(#clip240)" style="stroke:#000000; stroke-linecap:butt; stroke-linejoin:round; stroke-width:4; stroke-opacity:1; fill:none" points="
  2290.36,1423.18 2290.36,1404.28 
  "/>
<path clip-path="url(#clip240)" d="M200.002 1454.1 Q196.391 1454.1 194.562 1457.66 Q192.757 1461.2 192.757 1468.33 Q192.757 1475.44 194.562 1479.01 Q196.391 1482.55 200.002 1482.55 Q203.636 1482.55 205.442 1479.01 Q207.27 1475.44 207.27 1468.33 Q207.27 1461.2 205.442 1457.66 Q203.636 1454.1 200.002 1454.1 M200.002 1450.39 Q205.812 1450.39 208.868 1455 Q211.946 1459.58 211.946 1468.33 Q211.946 1477.06 208.868 1481.67 Q205.812 1486.25 200.002 1486.25 Q194.192 1486.25 191.113 1481.67 Q188.058 1477.06 188.058 1468.33 Q188.058 1459.58 191.113 1455 Q194.192 1450.39 200.002 1450.39 Z" fill="#000000" fill-rule="evenodd" fill-opacity="1" /><path clip-path="url(#clip240)" d="M697.29 1451.02 L715.647 1451.02 L715.647 1454.96 L701.573 1454.96 L701.573 1463.43 Q702.591 1463.08 703.61 1462.92 Q704.628 1462.73 705.647 1462.73 Q711.434 1462.73 714.813 1465.9 Q718.193 1469.08 718.193 1474.49 Q718.193 1480.07 714.721 1483.17 Q711.249 1486.25 704.929 1486.25 Q702.753 1486.25 700.485 1485.88 Q698.239 1485.51 695.832 1484.77 L695.832 1480.07 Q697.915 1481.2 700.138 1481.76 Q702.36 1482.32 704.837 1482.32 Q708.841 1482.32 711.179 1480.21 Q713.517 1478.1 713.517 1474.49 Q713.517 1470.88 711.179 1468.77 Q708.841 1466.67 704.837 1466.67 Q702.962 1466.67 701.087 1467.08 Q699.235 1467.5 697.29 1468.38 L697.29 1451.02 Z" fill="#000000" fill-rule="evenodd" fill-opacity="1" /><path clip-path="url(#clip240)" d="M737.406 1454.1 Q733.795 1454.1 731.966 1457.66 Q730.161 1461.2 730.161 1468.33 Q730.161 1475.44 731.966 1479.01 Q733.795 1482.55 737.406 1482.55 Q741.04 1482.55 742.846 1479.01 Q744.674 1475.44 744.674 1468.33 Q744.674 1461.2 742.846 1457.66 Q741.04 1454.1 737.406 1454.1 M737.406 1450.39 Q743.216 1450.39 746.272 1455 Q749.35 1459.58 749.35 1468.33 Q749.35 1477.06 746.272 1481.67 Q743.216 1486.25 737.406 1486.25 Q731.596 1486.25 728.517 1481.67 Q725.462 1477.06 725.462 1468.33 Q725.462 1459.58 728.517 1455 Q731.596 1450.39 737.406 1450.39 Z" fill="#000000" fill-rule="evenodd" fill-opacity="1" /><path clip-path="url(#clip240)" d="M1204.79 1481.64 L1212.43 1481.64 L1212.43 1455.28 L1204.12 1456.95 L1204.12 1452.69 L1212.38 1451.02 L1217.06 1451.02 L1217.06 1481.64 L1224.69 1481.64 L1224.69 1485.58 L1204.79 1485.58 L1204.79 1481.64 Z" fill="#000000" fill-rule="evenodd" fill-opacity="1" /><path clip-path="url(#clip240)" d="M1244.14 1454.1 Q1240.53 1454.1 1238.7 1457.66 Q1236.89 1461.2 1236.89 1468.33 Q1236.89 1475.44 1238.7 1479.01 Q1240.53 1482.55 1244.14 1482.55 Q1247.77 1482.55 1249.58 1479.01 Q1251.41 1475.44 1251.41 1468.33 Q1251.41 1461.2 1249.58 1457.66 Q1247.77 1454.1 1244.14 1454.1 M1244.14 1450.39 Q1249.95 1450.39 1253 1455 Q1256.08 1459.58 1256.08 1468.33 Q1256.08 1477.06 1253 1481.67 Q1249.95 1486.25 1244.14 1486.25 Q1238.33 1486.25 1235.25 1481.67 Q1232.19 1477.06 1232.19 1468.33 Q1232.19 1459.58 1235.25 1455 Q1238.33 1450.39 1244.14 1450.39 Z" fill="#000000" fill-rule="evenodd" fill-opacity="1" /><path clip-path="url(#clip240)" d="M1274.3 1454.1 Q1270.69 1454.1 1268.86 1457.66 Q1267.06 1461.2 1267.06 1468.33 Q1267.06 1475.44 1268.86 1479.01 Q1270.69 1482.55 1274.3 1482.55 Q1277.93 1482.55 1279.74 1479.01 Q1281.57 1475.44 1281.57 1468.33 Q1281.57 1461.2 1279.74 1457.66 Q1277.93 1454.1 1274.3 1454.1 M1274.3 1450.39 Q1280.11 1450.39 1283.17 1455 Q1286.24 1459.58 1286.24 1468.33 Q1286.24 1477.06 1283.17 1481.67 Q1280.11 1486.25 1274.3 1486.25 Q1268.49 1486.25 1265.41 1481.67 Q1262.36 1477.06 1262.36 1468.33 Q1262.36 1459.58 1265.41 1455 Q1268.49 1450.39 1274.3 1450.39 Z" fill="#000000" fill-rule="evenodd" fill-opacity="1" /><path clip-path="url(#clip240)" d="M1727.38 1481.64 L1735.02 1481.64 L1735.02 1455.28 L1726.7 1456.95 L1726.7 1452.69 L1734.97 1451.02 L1739.64 1451.02 L1739.64 1481.64 L1747.28 1481.64 L1747.28 1485.58 L1727.38 1485.58 L1727.38 1481.64 Z" fill="#000000" fill-rule="evenodd" fill-opacity="1" /><path clip-path="url(#clip240)" d="M1756.77 1451.02 L1775.13 1451.02 L1775.13 1454.96 L1761.06 1454.96 L1761.06 1463.43 Q1762.08 1463.08 1763.09 1462.92 Q1764.11 1462.73 1765.13 1462.73 Q1770.92 1462.73 1774.3 1465.9 Q1777.68 1469.08 1777.68 1474.49 Q1777.68 1480.07 1774.2 1483.17 Q1770.73 1486.25 1764.41 1486.25 Q1762.24 1486.25 1759.97 1485.88 Q1757.72 1485.51 1755.32 1484.77 L1755.32 1480.07 Q1757.4 1481.2 1759.62 1481.76 Q1761.84 1482.32 1764.32 1482.32 Q1768.33 1482.32 1770.66 1480.21 Q1773 1478.1 1773 1474.49 Q1773 1470.88 1770.66 1468.77 Q1768.33 1466.67 1764.32 1466.67 Q1762.45 1466.67 1760.57 1467.08 Q1758.72 1467.5 1756.77 1468.38 L1756.77 1451.02 Z" fill="#000000" fill-rule="evenodd" fill-opacity="1" /><path clip-path="url(#clip240)" d="M1796.89 1454.1 Q1793.28 1454.1 1791.45 1457.66 Q1789.64 1461.2 1789.64 1468.33 Q1789.64 1475.44 1791.45 1479.01 Q1793.28 1482.55 1796.89 1482.55 Q1800.52 1482.55 1802.33 1479.01 Q1804.16 1475.44 1804.16 1468.33 Q1804.16 1461.2 1802.33 1457.66 Q1800.52 1454.1 1796.89 1454.1 M1796.89 1450.39 Q1802.7 1450.39 1805.76 1455 Q1808.83 1459.58 1808.83 1468.33 Q1808.83 1477.06 1805.76 1481.67 Q1802.7 1486.25 1796.89 1486.25 Q1791.08 1486.25 1788 1481.67 Q1784.95 1477.06 1784.95 1468.33 Q1784.95 1459.58 1788 1455 Q1791.08 1450.39 1796.89 1450.39 Z" fill="#000000" fill-rule="evenodd" fill-opacity="1" /><path clip-path="url(#clip240)" d="M2254.05 1481.64 L2270.37 1481.64 L2270.37 1485.58 L2248.43 1485.58 L2248.43 1481.64 Q2251.09 1478.89 2255.67 1474.26 Q2260.28 1469.61 2261.46 1468.27 Q2263.7 1465.74 2264.58 1464.01 Q2265.49 1462.25 2265.49 1460.56 Q2265.49 1457.8 2263.54 1456.07 Q2261.62 1454.33 2258.52 1454.33 Q2256.32 1454.33 2253.87 1455.09 Q2251.44 1455.86 2248.66 1457.41 L2248.66 1452.69 Q2251.48 1451.55 2253.94 1450.97 Q2256.39 1450.39 2258.43 1450.39 Q2263.8 1450.39 2266.99 1453.08 Q2270.19 1455.77 2270.19 1460.26 Q2270.19 1462.39 2269.38 1464.31 Q2268.59 1466.2 2266.48 1468.8 Q2265.9 1469.47 2262.8 1472.69 Q2259.7 1475.88 2254.05 1481.64 Z" fill="#000000" fill-rule="evenodd" fill-opacity="1" /><path clip-path="url(#clip240)" d="M2290.19 1454.1 Q2286.57 1454.1 2284.75 1457.66 Q2282.94 1461.2 2282.94 1468.33 Q2282.94 1475.44 2284.75 1479.01 Q2286.57 1482.55 2290.19 1482.55 Q2293.82 1482.55 2295.62 1479.01 Q2297.45 1475.44 2297.45 1468.33 Q2297.45 1461.2 2295.62 1457.66 Q2293.82 1454.1 2290.19 1454.1 M2290.19 1450.39 Q2296 1450.39 2299.05 1455 Q2302.13 1459.58 2302.13 1468.33 Q2302.13 1477.06 2299.05 1481.67 Q2296 1486.25 2290.19 1486.25 Q2284.37 1486.25 2281.3 1481.67 Q2278.24 1477.06 2278.24 1468.33 Q2278.24 1459.58 2281.3 1455 Q2284.37 1450.39 2290.19 1450.39 Z" fill="#000000" fill-rule="evenodd" fill-opacity="1" /><path clip-path="url(#clip240)" d="M2320.35 1454.1 Q2316.74 1454.1 2314.91 1457.66 Q2313.1 1461.2 2313.1 1468.33 Q2313.1 1475.44 2314.91 1479.01 Q2316.74 1482.55 2320.35 1482.55 Q2323.98 1482.55 2325.79 1479.01 Q2327.62 1475.44 2327.62 1468.33 Q2327.62 1461.2 2325.79 1457.66 Q2323.98 1454.1 2320.35 1454.1 M2320.35 1450.39 Q2326.16 1450.39 2329.21 1455 Q2332.29 1459.58 2332.29 1468.33 Q2332.29 1477.06 2329.21 1481.67 Q2326.16 1486.25 2320.35 1486.25 Q2314.54 1486.25 2311.46 1481.67 Q2308.4 1477.06 2308.4 1468.33 Q2308.4 1459.58 2311.46 1455 Q2314.54 1450.39 2320.35 1450.39 Z" fill="#000000" fill-rule="evenodd" fill-opacity="1" /><path clip-path="url(#clip240)" d="M1249.47 1522.27 L1249.47 1532.4 L1261.53 1532.4 L1261.53 1536.95 L1249.47 1536.95 L1249.47 1556.3 Q1249.47 1560.66 1250.64 1561.9 Q1251.85 1563.14 1255.51 1563.14 L1261.53 1563.14 L1261.53 1568.04 L1255.51 1568.04 Q1248.74 1568.04 1246.16 1565.53 Q1243.58 1562.98 1243.58 1556.3 L1243.58 1536.95 L1239.28 1536.95 L1239.28 1532.4 L1243.58 1532.4 L1243.58 1522.27 L1249.47 1522.27 Z" fill="#000000" fill-rule="evenodd" fill-opacity="1" /><polyline clip-path="url(#clip242)" style="stroke:#000000; stroke-linecap:butt; stroke-linejoin:round; stroke-width:2; stroke-opacity:0.1; fill:none" points="
  148.057,1284.81 2352.76,1284.81 
  "/>
<polyline clip-path="url(#clip242)" style="stroke:#000000; stroke-linecap:butt; stroke-linejoin:round; stroke-width:2; stroke-opacity:0.1; fill:none" points="
  148.057,1088.75 2352.76,1088.75 
  "/>
<polyline clip-path="url(#clip242)" style="stroke:#000000; stroke-linecap:butt; stroke-linejoin:round; stroke-width:2; stroke-opacity:0.1; fill:none" points="
  148.057,892.687 2352.76,892.687 
  "/>
<polyline clip-path="url(#clip242)" style="stroke:#000000; stroke-linecap:butt; stroke-linejoin:round; stroke-width:2; stroke-opacity:0.1; fill:none" points="
  148.057,696.628 2352.76,696.628 
  "/>
<polyline clip-path="url(#clip242)" style="stroke:#000000; stroke-linecap:butt; stroke-linejoin:round; stroke-width:2; stroke-opacity:0.1; fill:none" points="
  148.057,500.568 2352.76,500.568 
  "/>
<polyline clip-path="url(#clip242)" style="stroke:#000000; stroke-linecap:butt; stroke-linejoin:round; stroke-width:2; stroke-opacity:0.1; fill:none" points="
  148.057,304.509 2352.76,304.509 
  "/>
<polyline clip-path="url(#clip242)" style="stroke:#000000; stroke-linecap:butt; stroke-linejoin:round; stroke-width:2; stroke-opacity:0.1; fill:none" points="
  148.057,108.45 2352.76,108.45 
  "/>
<polyline clip-path="url(#clip240)" style="stroke:#000000; stroke-linecap:butt; stroke-linejoin:round; stroke-width:4; stroke-opacity:1; fill:none" points="
  148.057,1423.18 148.057,47.2441 
  "/>
<polyline clip-path="url(#clip240)" style="stroke:#000000; stroke-linecap:butt; stroke-linejoin:round; stroke-width:4; stroke-opacity:1; fill:none" points="
  148.057,1284.81 166.954,1284.81 
  "/>
<polyline clip-path="url(#clip240)" style="stroke:#000000; stroke-linecap:butt; stroke-linejoin:round; stroke-width:4; stroke-opacity:1; fill:none" points="
  148.057,1088.75 166.954,1088.75 
  "/>
<polyline clip-path="url(#clip240)" style="stroke:#000000; stroke-linecap:butt; stroke-linejoin:round; stroke-width:4; stroke-opacity:1; fill:none" points="
  148.057,892.687 166.954,892.687 
  "/>
<polyline clip-path="url(#clip240)" style="stroke:#000000; stroke-linecap:butt; stroke-linejoin:round; stroke-width:4; stroke-opacity:1; fill:none" points="
  148.057,696.628 166.954,696.628 
  "/>
<polyline clip-path="url(#clip240)" style="stroke:#000000; stroke-linecap:butt; stroke-linejoin:round; stroke-width:4; stroke-opacity:1; fill:none" points="
  148.057,500.568 166.954,500.568 
  "/>
<polyline clip-path="url(#clip240)" style="stroke:#000000; stroke-linecap:butt; stroke-linejoin:round; stroke-width:4; stroke-opacity:1; fill:none" points="
  148.057,304.509 166.954,304.509 
  "/>
<polyline clip-path="url(#clip240)" style="stroke:#000000; stroke-linecap:butt; stroke-linejoin:round; stroke-width:4; stroke-opacity:1; fill:none" points="
  148.057,108.45 166.954,108.45 
  "/>
<path clip-path="url(#clip240)" d="M50.9921 1285.26 L80.6679 1285.26 L80.6679 1289.19 L50.9921 1289.19 L50.9921 1285.26 Z" fill="#000000" fill-rule="evenodd" fill-opacity="1" /><path clip-path="url(#clip240)" d="M104.927 1283.45 Q108.283 1284.17 110.158 1286.44 Q112.057 1288.71 112.057 1292.04 Q112.057 1297.16 108.538 1299.96 Q105.02 1302.76 98.5382 1302.76 Q96.3623 1302.76 94.0475 1302.32 Q91.7558 1301.9 89.3021 1301.04 L89.3021 1296.53 Q91.2465 1297.66 93.5613 1298.24 Q95.8761 1298.82 98.3993 1298.82 Q102.797 1298.82 105.089 1297.09 Q107.404 1295.35 107.404 1292.04 Q107.404 1288.98 105.251 1287.27 Q103.121 1285.54 99.3021 1285.54 L95.2743 1285.54 L95.2743 1281.69 L99.4872 1281.69 Q102.936 1281.69 104.765 1280.33 Q106.594 1278.94 106.594 1276.35 Q106.594 1273.68 104.696 1272.27 Q102.821 1270.84 99.3021 1270.84 Q97.3808 1270.84 95.1817 1271.25 Q92.9826 1271.67 90.3438 1272.55 L90.3438 1268.38 Q93.0058 1267.64 95.3206 1267.27 Q97.6585 1266.9 99.7187 1266.9 Q105.043 1266.9 108.145 1269.33 Q111.246 1271.74 111.246 1275.86 Q111.246 1278.73 109.603 1280.72 Q107.959 1282.69 104.927 1283.45 Z" fill="#000000" fill-rule="evenodd" fill-opacity="1" /><path clip-path="url(#clip240)" d="M51.9412 1089.2 L81.617 1089.2 L81.617 1093.13 L51.9412 1093.13 L51.9412 1089.2 Z" fill="#000000" fill-rule="evenodd" fill-opacity="1" /><path clip-path="url(#clip240)" d="M95.7373 1102.09 L112.057 1102.09 L112.057 1106.03 L90.1123 1106.03 L90.1123 1102.09 Q92.7743 1099.34 97.3576 1094.71 Q101.964 1090.05 103.145 1088.71 Q105.39 1086.19 106.27 1084.45 Q107.172 1082.69 107.172 1081 Q107.172 1078.25 105.228 1076.51 Q103.307 1074.78 100.205 1074.78 Q98.0058 1074.78 95.5521 1075.54 Q93.1215 1076.3 90.3438 1077.86 L90.3438 1073.13 Q93.1678 1072 95.6215 1071.42 Q98.0752 1070.84 100.112 1070.84 Q105.483 1070.84 108.677 1073.53 Q111.871 1076.21 111.871 1080.7 Q111.871 1082.83 111.061 1084.75 Q110.274 1086.65 108.168 1089.24 Q107.589 1089.92 104.487 1093.13 Q101.385 1096.33 95.7373 1102.09 Z" fill="#000000" fill-rule="evenodd" fill-opacity="1" /><path clip-path="url(#clip240)" d="M51.5708 893.139 L81.2466 893.139 L81.2466 897.074 L51.5708 897.074 L51.5708 893.139 Z" fill="#000000" fill-rule="evenodd" fill-opacity="1" /><path clip-path="url(#clip240)" d="M92.1493 906.032 L99.7882 906.032 L99.7882 879.666 L91.478 881.333 L91.478 877.074 L99.7419 875.407 L104.418 875.407 L104.418 906.032 L112.057 906.032 L112.057 909.967 L92.1493 909.967 L92.1493 906.032 Z" fill="#000000" fill-rule="evenodd" fill-opacity="1" /><path clip-path="url(#clip240)" d="M100.112 682.426 Q96.5011 682.426 94.6724 685.991 Q92.8669 689.533 92.8669 696.662 Q92.8669 703.769 94.6724 707.334 Q96.5011 710.875 100.112 710.875 Q103.746 710.875 105.552 707.334 Q107.381 703.769 107.381 696.662 Q107.381 689.533 105.552 685.991 Q103.746 682.426 100.112 682.426 M100.112 678.723 Q105.922 678.723 108.978 683.329 Q112.057 687.913 112.057 696.662 Q112.057 705.389 108.978 709.996 Q105.922 714.579 100.112 714.579 Q94.3021 714.579 91.2234 709.996 Q88.1679 705.389 88.1679 696.662 Q88.1679 687.913 91.2234 683.329 Q94.3021 678.723 100.112 678.723 Z" fill="#000000" fill-rule="evenodd" fill-opacity="1" /><path clip-path="url(#clip240)" d="M92.1493 513.913 L99.7882 513.913 L99.7882 487.548 L91.478 489.214 L91.478 484.955 L99.7419 483.288 L104.418 483.288 L104.418 513.913 L112.057 513.913 L112.057 517.848 L92.1493 517.848 L92.1493 513.913 Z" fill="#000000" fill-rule="evenodd" fill-opacity="1" /><path clip-path="url(#clip240)" d="M95.7373 317.854 L112.057 317.854 L112.057 321.789 L90.1123 321.789 L90.1123 317.854 Q92.7743 315.099 97.3576 310.47 Q101.964 305.817 103.145 304.474 Q105.39 301.951 106.27 300.215 Q107.172 298.456 107.172 296.766 Q107.172 294.011 105.228 292.275 Q103.307 290.539 100.205 290.539 Q98.0058 290.539 95.5521 291.303 Q93.1215 292.067 90.3438 293.618 L90.3438 288.896 Q93.1678 287.761 95.6215 287.183 Q98.0752 286.604 100.112 286.604 Q105.483 286.604 108.677 289.289 Q111.871 291.974 111.871 296.465 Q111.871 298.595 111.061 300.516 Q110.274 302.414 108.168 305.007 Q107.589 305.678 104.487 308.895 Q101.385 312.09 95.7373 317.854 Z" fill="#000000" fill-rule="evenodd" fill-opacity="1" /><path clip-path="url(#clip240)" d="M104.927 107.095 Q108.283 107.813 110.158 110.081 Q112.057 112.35 112.057 115.683 Q112.057 120.799 108.538 123.6 Q105.02 126.401 98.5382 126.401 Q96.3623 126.401 94.0475 125.961 Q91.7558 125.544 89.3021 124.688 L89.3021 120.174 Q91.2465 121.308 93.5613 121.887 Q95.8761 122.466 98.3993 122.466 Q102.797 122.466 105.089 120.73 Q107.404 118.993 107.404 115.683 Q107.404 112.628 105.251 110.915 Q103.121 109.179 99.3021 109.179 L95.2743 109.179 L95.2743 105.336 L99.4872 105.336 Q102.936 105.336 104.765 103.97 Q106.594 102.582 106.594 99.9889 Q106.594 97.3269 104.696 95.9149 Q102.821 94.4797 99.3021 94.4797 Q97.3808 94.4797 95.1817 94.8964 Q92.9826 95.313 90.3438 96.1926 L90.3438 92.026 Q93.0058 91.2853 95.3206 90.9149 Q97.6585 90.5445 99.7187 90.5445 Q105.043 90.5445 108.145 92.9751 Q111.246 95.3825 111.246 99.5028 Q111.246 102.373 109.603 104.364 Q107.959 106.331 104.927 107.095 Z" fill="#000000" fill-rule="evenodd" fill-opacity="1" /><polyline clip-path="url(#clip242)" style="stroke:#009af9; stroke-linecap:butt; stroke-linejoin:round; stroke-width:4; stroke-opacity:1; fill:none" points="
  210.454,696.628 220.906,667.485 231.357,728.985 241.809,807.999 252.261,571.875 262.713,532.398 273.164,491.6 283.616,467.128 294.068,450.043 304.52,542.7 
  314.972,546.254 325.423,730.859 335.875,661.75 346.327,671.45 356.779,681.139 367.231,802.289 377.682,807.911 388.134,803.328 398.586,737.007 409.038,695.855 
  419.489,761.088 429.941,881.007 440.393,855.661 450.845,669.66 461.297,652.127 471.748,739.908 482.2,867.776 492.652,856.116 503.104,843.134 513.555,1025.26 
  524.007,1105.09 534.459,1208.41 544.911,1251.69 555.363,1183.02 565.814,1302.99 576.266,1384.24 586.718,1355.97 597.17,1174.88 607.622,1283.24 618.073,1104.41 
  628.525,851.948 638.977,723.895 649.429,747.349 659.88,664.117 670.332,713.352 680.784,676.473 691.236,653.077 701.688,636.847 712.139,519.328 722.591,521.746 
  733.043,706.852 743.495,718.467 753.947,867.909 764.398,711.08 774.85,624.804 785.302,633.794 795.754,600.92 806.205,597.576 816.657,545.596 827.109,644.866 
  837.561,793.165 848.013,905.646 858.464,1018.14 868.916,1244.2 879.368,1352.05 889.82,1327.49 900.271,1151.27 910.723,1029.79 921.175,1155.94 931.627,1045.48 
  942.079,894.414 952.53,881.891 962.982,1006.29 973.434,1064.19 983.886,1102.81 994.338,1015.61 1004.79,1022.8 1015.24,891.974 1025.69,1013.02 1036.14,990.418 
  1046.6,746.567 1057.05,831.243 1067.5,811.829 1077.95,789.424 1088.4,887.32 1098.86,875.189 1109.31,842.51 1119.76,918.633 1130.21,763.052 1140.66,709.479 
  1151.11,583.013 1161.57,582.895 1172.02,563.548 1182.47,527.193 1192.92,475.558 1203.37,482.696 1213.83,406.189 1224.28,399.566 1234.73,370.367 1245.18,439.533 
  1255.63,402.003 1266.08,587.149 1276.54,568.405 1286.99,643.141 1297.44,846.748 1307.89,926.989 1318.34,818.48 1328.79,859.059 1339.25,1075.46 1349.7,1008.86 
  1360.15,956.944 1370.6,900.105 1381.05,794.232 1391.51,874.503 1401.96,942.446 1412.41,969.698 1422.86,853.192 1433.31,751.859 1443.76,672.314 1454.22,647.526 
  1464.67,800.789 1475.12,862.949 1485.57,934.127 1496.02,1062.76 1506.47,935.894 1516.93,886.415 1527.38,970.977 1537.83,916.226 1548.28,909.652 1558.73,943.976 
  1569.19,1299.79 1579.64,1197.1 1590.09,1113.7 1600.54,884.402 1610.99,814.946 1621.44,696.842 1631.9,699.337 1642.35,555.169 1652.8,542.615 1663.25,675.323 
  1673.7,538.765 1684.16,573.948 1694.61,762.504 1705.06,807.214 1715.51,788.534 1725.96,821.911 1736.41,821.528 1746.87,692.456 1757.32,592.698 1767.77,369.73 
  1778.22,193.617 1788.67,266.672 1799.12,201.089 1809.58,86.1857 1820.03,282.807 1830.48,297.479 1840.93,273.216 1851.38,639.042 1861.84,591.474 1872.29,783.22 
  1882.74,785.125 1893.19,986.783 1903.64,1094.34 1914.09,973.692 1924.55,1016.22 1935,1128.04 1945.45,1004.94 1955.9,1032.04 1966.35,1104.4 1976.81,1120.23 
  1987.26,1012.82 1997.71,944.083 2008.16,893.614 2018.61,1047.91 2029.06,824.879 2039.52,886.848 2049.97,887.192 2060.42,853.297 2070.87,754.805 2081.32,803.838 
  2091.77,632.975 2102.23,547.179 2112.68,562.25 2123.13,571.36 2133.58,619.855 2144.03,556.855 2154.49,536.167 2164.94,604.104 2175.39,691.194 2185.84,785.264 
  2196.29,787.586 2206.74,817.091 2217.2,778.738 2227.65,620.439 2238.1,570.867 2248.55,643.258 2259,676.094 2269.46,665.226 2279.91,685.685 2290.36,605.162 
  
  "/>
<path clip-path="url(#clip240)" d="
M2009.16 196.789 L2279.27 196.789 L2279.27 93.1086 L2009.16 93.1086  Z
  " fill="#ffffff" fill-rule="evenodd" fill-opacity="1"/>
<polyline clip-path="url(#clip240)" style="stroke:#000000; stroke-linecap:butt; stroke-linejoin:round; stroke-width:4; stroke-opacity:1; fill:none" points="
  2009.16,196.789 2279.27,196.789 2279.27,93.1086 2009.16,93.1086 2009.16,196.789 
  "/>
<polyline clip-path="url(#clip240)" style="stroke:#009af9; stroke-linecap:butt; stroke-linejoin:round; stroke-width:4; stroke-opacity:1; fill:none" points="
  2033.66,144.949 2180.64,144.949 
  "/>
<path clip-path="url(#clip240)" d="M2229.79 136.303 L2220.41 148.919 L2230.27 162.229 L2225.25 162.229 L2217.7 152.043 L2210.16 162.229 L2205.13 162.229 L2215.2 148.664 L2205.99 136.303 L2211.01 136.303 L2217.89 145.539 L2224.76 136.303 L2229.79 136.303 Z" fill="#000000" fill-rule="evenodd" fill-opacity="1" /></svg>
803 Q153.26 59.3692 150.922 57.2627 Q148.584 55.1562 144.58 55.1562 Q142.705 55.1562 140.83 55.5729 Q138.978 55.9896 137.033 56.8692 L137.033 39.5082 Z" fill="#000000" fill-rule="evenodd" fill-opacity="1" /><polyline clip-path="url(#clip242)" style="stroke:#009af9; stroke-linecap:butt; stroke-linejoin:round; stroke-width:4; stroke-opacity:1; fill:none" points="
  255.035,580.589 265.269,539.012 275.503,550.741 285.738,521.067 295.972,816.913 306.206,745.57 316.44,614.824 326.675,683.013 336.909,685.346 347.143,903.054 
  357.378,971.857 367.612,839.415 377.846,750.881 388.08,572.854 398.315,673.155 408.549,676.815 418.783,938.105 429.018,755.679 439.252,648.914 449.486,729.115 
  459.72,946.098 469.955,957.756 480.189,883.542 490.423,696.882 500.657,817.733 510.892,658.985 521.126,502.24 531.36,421.333 541.595,488.697 551.829,575.319 
  562.063,346.83 572.297,443.429 582.532,636.696 592.766,714.43 603,667.18 613.235,726.371 623.469,592.708 633.703,763.774 643.937,806.606 654.172,603.972 
  664.406,721.68 674.64,777.023 684.875,576.098 695.109,604.284 705.343,580.952 715.577,547.143 725.812,499.24 736.046,323.078 746.28,375.771 756.515,504.394 
  766.749,330.624 776.983,418.206 787.217,686.763 797.452,732.28 807.686,914.15 817.92,965.851 828.155,976.954 838.389,782.526 848.623,922.944 858.857,862.662 
  869.092,776.973 879.326,930.198 889.56,833.578 899.795,795.789 910.029,1124.4 920.263,1255.36 930.497,1254.89 940.732,1099.13 950.966,1171.73 961.2,1175.05 
  971.435,875.2 981.669,877.29 991.903,629.023 1002.14,751.825 1012.37,790.507 1022.61,695.882 1032.84,700.669 1043.07,783.106 1053.31,714.728 1063.54,765.638 
  1073.78,680.942 1084.01,696.57 1094.25,725.123 1104.48,636.515 1114.71,626.332 1124.95,471.674 1135.18,444.396 1145.42,493.443 1155.65,416.943 1165.89,363.865 
  1176.12,566.476 1186.35,495.749 1196.59,387.109 1206.82,303.651 1217.06,86.1857 1227.29,240.462 1237.53,342.716 1247.76,288.277 1257.99,511.701 1268.23,684.571 
  1278.46,441.996 1288.7,424.915 1298.93,459.478 1309.17,399.804 1319.4,514.889 1329.63,755.152 1339.87,954.201 1350.1,1059.67 1360.34,852.964 1370.57,748.456 
  1380.81,697.216 1391.04,847.403 1401.27,776.651 1411.51,692.624 1421.74,748.614 1431.98,657.47 1442.21,826.546 1452.45,915.168 1462.68,993.517 1472.91,1071.46 
  1483.15,1111.13 1493.38,922.327 1503.62,891.744 1513.85,842.655 1524.09,802.239 1534.32,1114.19 1544.55,1078.4 1554.79,1043.13 1565.02,1233.22 1575.26,1289.23 
  1585.49,1116.22 1595.73,1109.33 1605.96,1100.2 1616.19,1257.06 1626.43,1356.14 1636.66,1384.24 1646.9,1311.57 1657.13,1080.12 1667.37,981.082 1677.6,886.672 
  1687.83,731.57 1698.07,681.585 1708.3,497.532 1718.54,457.692 1728.77,458.325 1739.01,446.304 1749.24,412.34 1759.47,409.663 1769.71,583.032 1779.94,315.115 
  1790.18,396.426 1800.41,395.3 1810.65,311.656 1820.88,523.697 1831.11,468.811 1841.35,336.874 1851.58,411.4 1861.82,588.694 1872.05,584.308 1882.29,409.844 
  1892.52,536.929 1902.75,758.147 1912.99,785.176 1923.22,580.591 1933.46,526.865 1943.69,398.389 1953.93,421.997 1964.16,366.848 1974.39,463.037 1984.63,324.276 
  1994.86,479.248 2005.1,559.559 2015.33,769.39 2025.57,840.153 2035.8,799.26 2046.03,831.754 2056.27,675.521 2066.5,675.068 2076.74,658.151 2086.97,731.659 
  2097.21,690.28 2107.44,694.145 2117.67,737.266 2127.91,659.714 2138.14,764.18 2148.38,643.935 2158.61,710.217 2168.85,533.199 2179.08,639.412 2189.31,955.528 
  2199.55,1169.49 2209.78,917.814 2220.02,1198.57 2230.25,1208.49 2240.49,1143.07 2250.72,862.661 2260.95,839.156 2271.19,692.883 2281.42,681.128 2291.66,541.253 
  
  "/>
<path clip-path="url(#clip240)" d="
M2015.79 196.789 L2280.8 196.789 L2280.8 93.1086 L2015.79 93.1086  Z
  " fill="#ffffff" fill-rule="evenodd" fill-opacity="1"/>
<polyline clip-path="url(#clip240)" style="stroke:#000000; stroke-linecap:butt; stroke-linejoin:round; stroke-width:4; stroke-opacity:1; fill:none" points="
  2015.79,196.789 2280.8,196.789 2280.8,93.1086 2015.79,93.1086 2015.79,196.789 
  "/>
<polyline clip-path="url(#clip240)" style="stroke:#009af9; stroke-linecap:butt; stroke-linejoin:round; stroke-width:4; stroke-opacity:1; fill:none" points="
  2039.77,144.949 2183.7,144.949 
  "/>
<path clip-path="url(#clip240)" d="M2232.34 136.303 L2222.96 148.919 L2232.82 162.229 L2227.8 162.229 L2220.25 152.043 L2212.71 162.229 L2207.68 162.229 L2217.75 148.664 L2208.54 136.303 L2213.56 136.303 L2220.44 145.539 L2227.31 136.303 L2232.34 136.303 Z" fill="#000000" fill-rule="evenodd" fill-opacity="1" /></svg>
