<?xml version="1.0" encoding="utf-8"?>
<svg xmlns="http://www.w3.org/2000/svg" xmlns:xlink="http://www.w3.org/1999/xlink" width="600" height="400" viewBox="0 0 2400 1600">
<defs>
  <clipPath id="clip330">
    <rect x="0" y="0" width="2400" height="1600"/>
  </clipPath>
</defs>
<path clip-path="url(#clip330)" d="
M0 1600 L2400 1600 L2400 0 L0 0  Z
  " fill="#ffffff" fill-rule="evenodd" fill-opacity="1"/>
<defs>
  <clipPath id="clip331">
    <rect x="480" y="0" width="1681" height="1600"/>
  </clipPath>
</defs>
<path clip-path="url(#clip330)" d="
M249.542 1423.18 L2352.76 1423.18 L2352.76 47.2441 L249.542 47.2441  Z
  " fill="#ffffff" fill-rule="evenodd" fill-opacity="1"/>
<defs>
  <clipPath id="clip332">
    <rect x="249" y="47" width="2104" height="1377"/>
  </clipPath>
</defs>
<polyline clip-path="url(#clip332)" style="stroke:#000000; stroke-linecap:butt; stroke-linejoin:round; stroke-width:2; stroke-opacity:0.1; fill:none" points="
  299.096,1423.18 299.096,47.2441 
  "/>
<polyline clip-path="url(#clip332)" style="stroke:#000000; stroke-linecap:butt; stroke-linejoin:round; stroke-width:2; stroke-opacity:0.1; fill:none" points="
  797.63,1423.18 797.63,47.2441 
  "/>
<polyline clip-path="url(#clip332)" style="stroke:#000000; stroke-linecap:butt; stroke-linejoin:round; stroke-width:2; stroke-opacity:0.1; fill:none" points="
  1296.16,1423.18 1296.16,47.2441 
  "/>
<polyline clip-path="url(#clip332)" style="stroke:#000000; stroke-linecap:butt; stroke-linejoin:round; stroke-width:2; stroke-opacity:0.1; fill:none" points="
  1794.7,1423.18 1794.7,47.2441 
  "/>
<polyline clip-path="url(#clip332)" style="stroke:#000000; stroke-linecap:butt; stroke-linejoin:round; stroke-width:2; stroke-opacity:0.1; fill:none" points="
  2293.23,1423.18 2293.23,47.2441 
  "/>
<polyline clip-path="url(#clip330)" style="stroke:#000000; stroke-linecap:butt; stroke-linejoin:round; stroke-width:4; stroke-opacity:1; fill:none" points="
  249.542,1423.18 2352.76,1423.18 
  "/>
<polyline clip-path="url(#clip330)" style="stroke:#000000; stroke-linecap:butt; stroke-linejoin:round; stroke-width:4; stroke-opacity:1; fill:none" points="
  299.096,1423.18 299.096,1404.28 
  "/>
<polyline clip-path="url(#clip330)" style="stroke:#000000; stroke-linecap:butt; stroke-linejoin:round; stroke-width:4; stroke-opacity:1; fill:none" points="
  797.63,1423.18 797.63,1404.28 
  "/>
<polyline clip-path="url(#clip330)" style="stroke:#000000; stroke-linecap:butt; stroke-linejoin:round; stroke-width:4; stroke-opacity:1; fill:none" points="
  1296.16,1423.18 1296.16,1404.28 
  "/>
<polyline clip-path="url(#clip330)" style="stroke:#000000; stroke-linecap:butt; stroke-linejoin:round; stroke-width:4; stroke-opacity:1; fill:none" points="
  1794.7,1423.18 1794.7,1404.28 
  "/>
<polyline clip-path="url(#clip330)" style="stroke:#000000; stroke-linecap:butt; stroke-linejoin:round; stroke-width:4; stroke-opacity:1; fill:none" points="
  2293.23,1423.18 2293.23,1404.28 
  "/>
<path clip-path="url(#clip330)" d="M299.096 1454.1 Q295.485 1454.1 293.656 1457.66 Q291.851 1461.2 291.851 1468.33 Q291.851 1475.44 293.656 1479.01 Q295.485 1482.55 299.096 1482.55 Q302.731 1482.55 304.536 1479.01 Q306.365 1475.44 306.365 1468.33 Q306.365 1461.2 304.536 1457.66 Q302.731 1454.1 299.096 1454.1 M299.096 1450.39 Q304.906 1450.39 307.962 1455 Q311.041 1459.58 311.041 1468.33 Q311.041 1477.06 307.962 1481.67 Q304.906 1486.25 299.096 1486.25 Q293.286 1486.25 290.207 1481.67 Q287.152 1477.06 287.152 1468.33 Q287.152 1459.58 290.207 1455 Q293.286 1450.39 299.096 1450.39 Z" fill="#000000" fill-rule="evenodd" fill-opacity="1" /><path clip-path="url(#clip330)" d="M772.329 1451.02 L790.686 1451.02 L790.686 1454.96 L776.612 1454.96 L776.612 1463.43 Q777.63 1463.08 778.649 1462.92 Q779.667 1462.73 780.686 1462.73 Q786.473 1462.73 789.852 1465.9 Q793.232 1469.08 793.232 1474.49 Q793.232 1480.07 789.76 1483.17 Q786.287 1486.25 779.968 1486.25 Q777.792 1486.25 775.524 1485.88 Q773.278 1485.51 770.871 1484.77 L770.871 1480.07 Q772.954 1481.2 775.176 1481.76 Q777.399 1482.32 779.875 1482.32 Q783.88 1482.32 786.218 1480.21 Q788.556 1478.1 788.556 1474.49 Q788.556 1470.88 786.218 1468.77 Q783.88 1466.67 779.875 1466.67 Q778 1466.67 776.125 1467.08 Q774.274 1467.5 772.329 1468.38 L772.329 1451.02 Z" fill="#000000" fill-rule="evenodd" fill-opacity="1" /><path clip-path="url(#clip330)" d="M812.445 1454.1 Q808.834 1454.1 807.005 1457.66 Q805.199 1461.2 805.199 1468.33 Q805.199 1475.44 807.005 1479.01 Q808.834 1482.55 812.445 1482.55 Q816.079 1482.55 817.884 1479.01 Q819.713 1475.44 819.713 1468.33 Q819.713 1461.2 817.884 1457.66 Q816.079 1454.1 812.445 1454.1 M812.445 1450.39 Q818.255 1450.39 821.31 1455 Q824.389 1459.58 824.389 1468.33 Q824.389 1477.06 821.31 1481.67 Q818.255 1486.25 812.445 1486.25 Q806.635 1486.25 803.556 1481.67 Q800.5 1477.06 800.5 1468.33 Q800.5 1459.58 803.556 1455 Q806.635 1450.39 812.445 1450.39 Z" fill="#000000" fill-rule="evenodd" fill-opacity="1" /><path clip-path="url(#clip330)" d="M1255.77 1481.64 L1263.41 1481.64 L1263.41 1455.28 L1255.1 1456.95 L1255.1 1452.69 L1263.36 1451.02 L1268.04 1451.02 L1268.04 1481.64 L1275.68 1481.64 L1275.68 1485.58 L1255.77 1485.58 L1255.77 1481.64 Z" fill="#000000" fill-rule="evenodd" fill-opacity="1" /><path clip-path="url(#clip330)" d="M1295.12 1454.1 Q1291.51 1454.1 1289.68 1457.66 Q1287.88 1461.2 1287.88 1468.33 Q1287.88 1475.44 1289.68 1479.01 Q1291.51 1482.55 1295.12 1482.55 Q1298.76 1482.55 1300.56 1479.01 Q1302.39 1475.44 1302.39 1468.33 Q1302.39 1461.2 1300.56 1457.66 Q1298.76 1454.1 1295.12 1454.1 M1295.12 1450.39 Q1300.93 1450.39 1303.99 1455 Q1307.07 1459.58 1307.07 1468.33 Q1307.07 1477.06 1303.99 1481.67 Q1300.93 1486.25 1295.12 1486.25 Q1289.31 1486.25 1286.23 1481.67 Q1283.18 1477.06 1283.18 1468.33 Q1283.18 1459.58 1286.23 1455 Q1289.31 1450.39 1295.12 1450.39 Z" fill="#000000" fill-rule="evenodd" fill-opacity="1" /><path clip-path="url(#clip330)" d="M1325.28 1454.1 Q1321.67 1454.1 1319.84 1457.66 Q1318.04 1461.2 1318.04 1468.33 Q1318.04 1475.44 1319.84 1479.01 Q1321.67 1482.55 1325.28 1482.55 Q1328.92 1482.55 1330.72 1479.01 Q1332.55 1475.44 1332.55 1468.33 Q1332.55 1461.2 1330.72 1457.66 Q1328.92 1454.1 1325.28 1454.1 M1325.28 1450.39 Q1331.09 1450.39 1334.15 1455 Q1337.23 1459.58 1337.23 1468.33 Q1337.23 1477.06 1334.15 1481.67 Q1331.09 1486.25 1325.28 1486.25 Q1319.47 1486.25 1316.4 1481.67 Q1313.34 1477.06 1313.34 1468.33 Q1313.34 1459.58 1316.4 1455 Q1319.47 1450.39 1325.28 1450.39 Z" fill="#000000" fill-rule="evenodd" fill-opacity="1" /><path clip-path="url(#clip330)" d="M1754.3 1481.64 L1761.94 1481.64 L1761.94 1455.28 L1753.63 1456.95 L1753.63 1452.69 L1761.9 1451.02 L1766.57 1451.02 L1766.57 1481.64 L1774.21 1481.64 L1774.21 1485.58 L1754.3 1485.58 L1754.3 1481.64 Z" fill="#000000" fill-rule="evenodd" fill-opacity="1" /><path clip-path="url(#clip330)" d="M1783.7 1451.02 L1802.06 1451.02 L1802.06 1454.96 L1787.98 1454.96 L1787.98 1463.43 Q1789 1463.08 1790.02 1462.92 Q1791.04 1462.73 1792.06 1462.73 Q1797.85 1462.73 1801.23 1465.9 Q1804.6 1469.08 1804.6 1474.49 Q1804.6 1480.07 1801.13 1483.17 Q1797.66 1486.25 1791.34 1486.25 Q1789.16 1486.25 1786.9 1485.88 Q1784.65 1485.51 1782.24 1484.77 L1782.24 1480.07 Q1784.33 1481.2 1786.55 1481.76 Q1788.77 1482.32 1791.25 1482.32 Q1795.25 1482.32 1797.59 1480.21 Q1799.93 1478.1 1799.93 1474.49 Q1799.93 1470.88 1797.59 1468.77 Q1795.25 1466.67 1791.25 1466.67 Q1789.37 1466.67 1787.5 1467.08 Q1785.65 1467.5 1783.7 1468.38 L1783.7 1451.02 Z" fill="#000000" fill-rule="evenodd" fill-opacity="1" /><path clip-path="url(#clip330)" d="M1823.82 1454.1 Q1820.21 1454.1 1818.38 1457.66 Q1816.57 1461.2 1816.57 1468.33 Q1816.57 1475.44 1818.38 1479.01 Q1820.21 1482.55 1823.82 1482.55 Q1827.45 1482.55 1829.26 1479.01 Q1831.09 1475.44 1831.09 1468.33 Q1831.09 1461.2 1829.26 1457.66 Q1827.45 1454.1 1823.82 1454.1 M1823.82 1450.39 Q1829.63 1450.39 1832.68 1455 Q1835.76 1459.58 1835.76 1468.33 Q1835.76 1477.06 1832.68 1481.67 Q1829.63 1486.25 1823.82 1486.25 Q1818.01 1486.25 1814.93 1481.67 Q1811.87 1477.06 1811.87 1468.33 Q1811.87 1459.58 1814.93 1455 Q1818.01 1450.39 1823.82 1450.39 Z" fill="#000000" fill-rule="evenodd" fill-opacity="1" /><path clip-path="url(#clip330)" d="M2256.92 1481.64 L2273.24 1481.64 L2273.24 1485.58 L2251.3 1485.58 L2251.3 1481.64 Q2253.96 1478.89 2258.54 1474.26 Q2263.15 1469.61 2264.33 1468.27 Q2266.58 1465.74 2267.46 1464.01 Q2268.36 1462.25 2268.36 1460.56 Q2268.36 1457.8 2266.41 1456.07 Q2264.49 1454.33 2261.39 1454.33 Q2259.19 1454.33 2256.74 1455.09 Q2254.31 1455.86 2251.53 1457.41 L2251.53 1452.69 Q2254.35 1451.55 2256.81 1450.97 Q2259.26 1450.39 2261.3 1450.39 Q2266.67 1450.39 2269.86 1453.08 Q2273.06 1455.77 2273.06 1460.26 Q2273.06 1462.39 2272.25 1464.31 Q2271.46 1466.2 2269.35 1468.8 Q2268.78 1469.47 2265.67 1472.69 Q2262.57 1475.88 2256.92 1481.64 Z" fill="#000000" fill-rule="evenodd" fill-opacity="1" /><path clip-path="url(#clip330)" d="M2293.06 1454.1 Q2289.45 1454.1 2287.62 1457.66 Q2285.81 1461.2 2285.81 1468.33 Q2285.81 1475.44 2287.62 1479.01 Q2289.45 1482.55 2293.06 1482.55 Q2296.69 1482.55 2298.5 1479.01 Q2300.33 1475.44 2300.33 1468.33 Q2300.33 1461.2 2298.5 1457.66 Q2296.69 1454.1 2293.06 1454.1 M2293.06 1450.39 Q2298.87 1450.39 2301.92 1455 Q2305 1459.58 2305 1468.33 Q2305 1477.06 2301.92 1481.67 Q2298.87 1486.25 2293.06 1486.25 Q2287.25 1486.25 2284.17 1481.67 Q2281.11 1477.06 2281.11 1468.33 Q2281.11 1459.58 2284.17 1455 Q2287.25 1450.39 2293.06 1450.39 Z" fill="#000000" fill-rule="evenodd" fill-opacity="1" /><path clip-path="url(#clip330)" d="M2323.22 1454.1 Q2319.61 1454.1 2317.78 1457.66 Q2315.97 1461.2 2315.97 1468.33 Q2315.97 1475.44 2317.78 1479.01 Q2319.61 1482.55 2323.22 1482.55 Q2326.85 1482.55 2328.66 1479.01 Q2330.49 1475.44 2330.49 1468.33 Q2330.49 1461.2 2328.66 1457.66 Q2326.85 1454.1 2323.22 1454.1 M2323.22 1450.39 Q2329.03 1450.39 2332.08 1455 Q2335.16 1459.58 2335.16 1468.33 Q2335.16 1477.06 2332.08 1481.67 Q2329.03 1486.25 2323.22 1486.25 Q2317.41 1486.25 2314.33 1481.67 Q2311.27 1477.06 2311.27 1468.33 Q2311.27 1459.58 2314.33 1455 Q2317.41 1450.39 2323.22 1450.39 Z" fill="#000000" fill-rule="evenodd" fill-opacity="1" /><path clip-path="url(#clip330)" d="M1168.87 1520.52 L1175.3 1520.52 L1175.3 1568.04 L1168.87 1568.04 L1168.87 1520.52 Z" fill="#000000" fill-rule="evenodd" fill-opacity="1" /><path clip-path="url(#clip330)" d="M1193.63 1522.27 L1193.63 1532.4 L1205.7 1532.4 L1205.7 1536.95 L1193.63 1536.95 L1193.63 1556.3 Q1193.63 1560.66 1194.81 1561.9 Q1196.02 1563.14 1199.68 1563.14 L1205.7 1563.14 L1205.7 1568.04 L1199.68 1568.04 Q1192.9 1568.04 1190.32 1565.53 Q1187.74 1562.98 1187.74 1556.3 L1187.74 1536.95 L1183.45 1536.95 L1183.45 1532.4 L1187.74 1532.4 L1187.74 1522.27 L1193.63 1522.27 Z" fill="#000000" fill-rule="evenodd" fill-opacity="1" /><path clip-path="url(#clip330)" d="M1243.89 1548.76 L1243.89 1551.62 L1216.96 1551.62 Q1217.34 1557.67 1220.59 1560.85 Q1223.87 1564 1229.69 1564 Q1233.07 1564 1236.22 1563.17 Q1239.4 1562.35 1242.52 1560.69 L1242.52 1566.23 Q1239.37 1567.57 1236.06 1568.27 Q1232.75 1568.97 1229.34 1568.97 Q1220.81 1568.97 1215.82 1564 Q1210.85 1559.04 1210.85 1550.57 Q1210.85 1541.82 1215.56 1536.69 Q1220.3 1531.54 1228.33 1531.54 Q1235.52 1531.54 1239.69 1536.18 Q1243.89 1540.8 1243.89 1548.76 M1238.03 1547.04 Q1237.97 1542.23 1235.33 1539.37 Q1232.72 1536.5 1228.39 1536.5 Q1223.49 1536.5 1220.53 1539.27 Q1217.6 1542.04 1217.15 1547.07 L1238.03 1547.04 Z" fill="#000000" fill-rule="evenodd" fill-opacity="1" /><path clip-path="url(#clip330)" d="M1274.16 1537.87 Q1273.17 1537.3 1271.99 1537.04 Q1270.85 1536.76 1269.45 1536.76 Q1264.48 1536.76 1261.81 1540 Q1259.17 1543.22 1259.17 1549.27 L1259.17 1568.04 L1253.28 1568.04 L1253.28 1532.4 L1259.17 1532.4 L1259.17 1537.93 Q1261.01 1534.69 1263.97 1533.13 Q1266.93 1531.54 1271.17 1531.54 Q1271.77 1531.54 1272.5 1531.63 Q1273.24 1531.7 1274.13 1531.85 L1274.16 1537.87 Z" fill="#000000" fill-rule="evenodd" fill-opacity="1" /><path clip-path="url(#clip330)" d="M1296.5 1550.12 Q1289.4 1550.12 1286.67 1551.75 Q1283.93 1553.37 1283.93 1557.29 Q1283.93 1560.4 1285.97 1562.25 Q1288.04 1564.07 1291.57 1564.07 Q1296.44 1564.07 1299.37 1560.63 Q1302.33 1557.16 1302.33 1551.43 L1302.33 1550.12 L1296.5 1550.12 M1308.18 1547.71 L1308.18 1568.04 L1302.33 1568.04 L1302.33 1562.63 Q1300.32 1565.88 1297.33 1567.44 Q1294.34 1568.97 1290.01 1568.97 Q1284.53 1568.97 1281.29 1565.91 Q1278.07 1562.82 1278.07 1557.67 Q1278.07 1551.65 1282.08 1548.6 Q1286.13 1545.54 1294.11 1545.54 L1302.33 1545.54 L1302.33 1544.97 Q1302.33 1540.93 1299.65 1538.73 Q1297.01 1536.5 1292.21 1536.5 Q1289.15 1536.5 1286.25 1537.23 Q1283.36 1537.97 1280.68 1539.43 L1280.68 1534.02 Q1283.9 1532.78 1286.92 1532.17 Q1289.95 1531.54 1292.81 1531.54 Q1300.54 1531.54 1304.36 1535.55 Q1308.18 1539.56 1308.18 1547.71 Z" fill="#000000" fill-rule="evenodd" fill-opacity="1" /><path clip-path="url(#clip330)" d="M1326.04 1522.27 L1326.04 1532.4 L1338.1 1532.4 L1338.1 1536.95 L1326.04 1536.95 L1326.04 1556.3 Q1326.04 1560.66 1327.22 1561.9 Q1328.43 1563.14 1332.09 1563.14 L1338.1 1563.14 L1338.1 1568.04 L1332.09 1568.04 Q1325.31 1568.04 1322.73 1565.53 Q1320.15 1562.98 1320.15 1556.3 L1320.15 1536.95 L1315.85 1536.95 L1315.85 1532.4 L1320.15 1532.4 L1320.15 1522.27 L1326.04 1522.27 Z" fill="#000000" fill-rule="evenodd" fill-opacity="1" /><path clip-path="url(#clip330)" d="M1345.8 1532.4 L1351.66 1532.4 L1351.66 1568.04 L1345.8 1568.04 L1345.8 1532.4 M1345.8 1518.52 L1351.66 1518.52 L1351.66 1525.93 L1345.8 1525.93 L1345.8 1518.52 Z" fill="#000000" fill-rule="evenodd" fill-opacity="1" /><path clip-path="url(#clip330)" d="M1377.73 1536.5 Q1373.02 1536.5 1370.28 1540.19 Q1367.54 1543.85 1367.54 1550.25 Q1367.54 1556.65 1370.25 1560.34 Q1372.99 1564 1377.73 1564 Q1382.41 1564 1385.14 1560.31 Q1387.88 1556.62 1387.88 1550.25 Q1387.88 1543.92 1385.14 1540.23 Q1382.41 1536.5 1377.73 1536.5 M1377.73 1531.54 Q1385.37 1531.54 1389.73 1536.5 Q1394.09 1541.47 1394.09 1550.25 Q1394.09 1559 1389.73 1564 Q1385.37 1568.97 1377.73 1568.97 Q1370.06 1568.97 1365.7 1564 Q1361.37 1559 1361.37 1550.25 Q1361.37 1541.47 1365.7 1536.5 Q1370.06 1531.54 1377.73 1531.54 Z" fill="#000000" fill-rule="evenodd" fill-opacity="1" /><path clip-path="url(#clip330)" d="M1433.43 1546.53 L1433.43 1568.04 L1427.57 1568.04 L1427.57 1546.72 Q1427.57 1541.66 1425.6 1539.14 Q1423.63 1536.63 1419.68 1536.63 Q1414.94 1536.63 1412.2 1539.65 Q1409.46 1542.68 1409.46 1547.9 L1409.46 1568.04 L1403.57 1568.04 L1403.57 1532.4 L1409.46 1532.4 L1409.46 1537.93 Q1411.56 1534.72 1414.39 1533.13 Q1417.26 1531.54 1420.98 1531.54 Q1427.13 1531.54 1430.28 1535.36 Q1433.43 1539.14 1433.43 1546.53 Z" fill="#000000" fill-rule="evenodd" fill-opacity="1" /><polyline clip-path="url(#clip332)" style="stroke:#000000; stroke-linecap:butt; stroke-linejoin:round; stroke-width:2; stroke-opacity:0.1; fill:none" points="
  249.542,1384.24 2352.76,1384.24 
  "/>
<polyline clip-path="url(#clip332)" style="stroke:#000000; stroke-linecap:butt; stroke-linejoin:round; stroke-width:2; stroke-opacity:0.1; fill:none" points="
  249.542,1059.73 2352.76,1059.73 
  "/>
<polyline clip-path="url(#clip332)" style="stroke:#000000; stroke-linecap:butt; stroke-linejoin:round; stroke-width:2; stroke-opacity:0.1; fill:none" points="
  249.542,735.212 2352.76,735.212 
  "/>
<polyline clip-path="url(#clip332)" style="stroke:#000000; stroke-linecap:butt; stroke-linejoin:round; stroke-width:2; stroke-opacity:0.1; fill:none" points="
  249.542,410.699 2352.76,410.699 
  "/>
<polyline clip-path="url(#clip332)" style="stroke:#000000; stroke-linecap:butt; stroke-linejoin:round; stroke-width:2; stroke-opacity:0.1; fill:none" points="
  249.542,86.1857 2352.76,86.1857 
  "/>
<polyline clip-path="url(#clip330)" style="stroke:#000000; stroke-linecap:butt; stroke-linejoin:round; stroke-width:4; stroke-opacity:1; fill:none" points="
  249.542,1423.18 249.542,47.2441 
  "/>
<polyline clip-path="url(#clip330)" style="stroke:#000000; stroke-linecap:butt; stroke-linejoin:round; stroke-width:4; stroke-opacity:1; fill:none" points="
  249.542,1384.24 268.44,1384.24 
  "/>
<polyline clip-path="url(#clip330)" style="stroke:#000000; stroke-linecap:butt; stroke-linejoin:round; stroke-width:4; stroke-opacity:1; fill:none" points="
  249.542,1059.73 268.44,1059.73 
  "/>
<polyline clip-path="url(#clip330)" style="stroke:#000000; stroke-linecap:butt; stroke-linejoin:round; stroke-width:4; stroke-opacity:1; fill:none" points="
  249.542,735.212 268.44,735.212 
  "/>
<polyline clip-path="url(#clip330)" style="stroke:#000000; stroke-linecap:butt; stroke-linejoin:round; stroke-width:4; stroke-opacity:1; fill:none" points="
  249.542,410.699 268.44,410.699 
  "/>
<polyline clip-path="url(#clip330)" style="stroke:#000000; stroke-linecap:butt; stroke-linejoin:round; stroke-width:4; stroke-opacity:1; fill:none" points="
  249.542,86.1857 268.44,86.1857 
  "/>
<path clip-path="url(#clip330)" d="M126.205 1370.04 Q122.593 1370.04 120.765 1373.6 Q118.959 1377.14 118.959 1384.27 Q118.959 1391.38 120.765 1394.94 Q122.593 1398.49 126.205 1398.49 Q129.839 1398.49 131.644 1394.94 Q133.473 1391.38 133.473 1384.27 Q133.473 1377.14 131.644 1373.6 Q129.839 1370.04 126.205 1370.04 M126.205 1366.33 Q132.015 1366.33 135.07 1370.94 Q138.149 1375.52 138.149 1384.27 Q138.149 1393 135.07 1397.61 Q132.015 1402.19 126.205 1402.19 Q120.394 1402.19 117.316 1397.61 Q114.26 1393 114.26 1384.27 Q114.26 1375.52 117.316 1370.94 Q120.394 1366.33 126.205 1366.33 Z" fill="#000000" fill-rule="evenodd" fill-opacity="1" /><path clip-path="url(#clip330)" d="M146.366 1395.64 L151.251 1395.64 L151.251 1401.52 L146.366 1401.52 L146.366 1395.64 Z" fill="#000000" fill-rule="evenodd" fill-opacity="1" /><path clip-path="url(#clip330)" d="M171.436 1370.04 Q167.825 1370.04 165.996 1373.6 Q164.19 1377.14 164.19 1384.27 Q164.19 1391.38 165.996 1394.94 Q167.825 1398.49 171.436 1398.49 Q175.07 1398.49 176.876 1394.94 Q178.704 1391.38 178.704 1384.27 Q178.704 1377.14 176.876 1373.6 Q175.07 1370.04 171.436 1370.04 M171.436 1366.33 Q177.246 1366.33 180.301 1370.94 Q183.38 1375.52 183.38 1384.27 Q183.38 1393 180.301 1397.61 Q177.246 1402.19 171.436 1402.19 Q165.626 1402.19 162.547 1397.61 Q159.491 1393 159.491 1384.27 Q159.491 1375.52 162.547 1370.94 Q165.626 1366.33 171.436 1366.33 Z" fill="#000000" fill-rule="evenodd" fill-opacity="1" /><path clip-path="url(#clip330)" d="M201.598 1370.04 Q197.987 1370.04 196.158 1373.6 Q194.352 1377.14 194.352 1384.27 Q194.352 1391.38 196.158 1394.94 Q197.987 1398.49 201.598 1398.49 Q205.232 1398.49 207.037 1394.94 Q208.866 1391.38 208.866 1384.27 Q208.866 1377.14 207.037 1373.6 Q205.232 1370.04 201.598 1370.04 M201.598 1366.33 Q207.408 1366.33 210.463 1370.94 Q213.542 1375.52 213.542 1384.27 Q213.542 1393 210.463 1397.61 Q207.408 1402.19 201.598 1402.19 Q195.787 1402.19 192.709 1397.61 Q189.653 1393 189.653 1384.27 Q189.653 1375.52 192.709 1370.94 Q195.787 1366.33 201.598 1366.33 Z" fill="#000000" fill-rule="evenodd" fill-opacity="1" /><path clip-path="url(#clip330)" d="M127.2 1045.52 Q123.589 1045.52 121.76 1049.09 Q119.955 1052.63 119.955 1059.76 Q119.955 1066.87 121.76 1070.43 Q123.589 1073.97 127.2 1073.97 Q130.834 1073.97 132.64 1070.43 Q134.468 1066.87 134.468 1059.76 Q134.468 1052.63 132.64 1049.09 Q130.834 1045.52 127.2 1045.52 M127.2 1041.82 Q133.01 1041.82 136.066 1046.43 Q139.144 1051.01 139.144 1059.76 Q139.144 1068.49 136.066 1073.09 Q133.01 1077.68 127.2 1077.68 Q121.39 1077.68 118.311 1073.09 Q115.256 1068.49 115.256 1059.76 Q115.256 1051.01 118.311 1046.43 Q121.39 1041.82 127.2 1041.82 Z" fill="#000000" fill-rule="evenodd" fill-opacity="1" /><path clip-path="url(#clip330)" d="M147.362 1071.13 L152.246 1071.13 L152.246 1077.01 L147.362 1077.01 L147.362 1071.13 Z" fill="#000000" fill-rule="evenodd" fill-opacity="1" /><path clip-path="url(#clip330)" d="M166.459 1073.07 L182.778 1073.07 L182.778 1077.01 L160.834 1077.01 L160.834 1073.07 Q163.496 1070.32 168.079 1065.69 Q172.686 1061.03 173.866 1059.69 Q176.112 1057.17 176.991 1055.43 Q177.894 1053.67 177.894 1051.98 Q177.894 1049.23 175.95 1047.49 Q174.028 1045.76 170.927 1045.76 Q168.727 1045.76 166.274 1046.52 Q163.843 1047.28 161.065 1048.83 L161.065 1044.11 Q163.89 1042.98 166.343 1042.4 Q168.797 1041.82 170.834 1041.82 Q176.204 1041.82 179.399 1044.51 Q182.593 1047.19 182.593 1051.68 Q182.593 1053.81 181.783 1055.73 Q180.996 1057.63 178.889 1060.22 Q178.311 1060.89 175.209 1064.11 Q172.107 1067.31 166.459 1073.07 Z" fill="#000000" fill-rule="evenodd" fill-opacity="1" /><path clip-path="url(#clip330)" d="M192.639 1042.45 L210.996 1042.45 L210.996 1046.38 L196.922 1046.38 L196.922 1054.85 Q197.94 1054.51 198.959 1054.34 Q199.977 1054.16 200.996 1054.16 Q206.783 1054.16 210.162 1057.33 Q213.542 1060.5 213.542 1065.92 Q213.542 1071.5 210.07 1074.6 Q206.598 1077.68 200.278 1077.68 Q198.102 1077.68 195.834 1077.31 Q193.588 1076.94 191.181 1076.19 L191.181 1071.5 Q193.264 1072.63 195.487 1073.19 Q197.709 1073.74 200.186 1073.74 Q204.19 1073.74 206.528 1071.63 Q208.866 1069.53 208.866 1065.92 Q208.866 1062.31 206.528 1060.2 Q204.19 1058.09 200.186 1058.09 Q198.311 1058.09 196.436 1058.51 Q194.584 1058.93 192.639 1059.81 L192.639 1042.45 Z" fill="#000000" fill-rule="evenodd" fill-opacity="1" /><path clip-path="url(#clip330)" d="M126.205 721.011 Q122.593 721.011 120.765 724.575 Q118.959 728.117 118.959 735.247 Q118.959 742.353 120.765 745.918 Q122.593 749.46 126.205 749.46 Q129.839 749.46 131.644 745.918 Q133.473 742.353 133.473 735.247 Q133.473 728.117 131.644 724.575 Q129.839 721.011 126.205 721.011 M126.205 717.307 Q132.015 717.307 135.07 721.913 Q138.149 726.497 138.149 735.247 Q138.149 743.973 135.07 748.58 Q132.015 753.163 126.205 753.163 Q120.394 753.163 117.316 748.58 Q114.26 743.973 114.26 735.247 Q114.26 726.497 117.316 721.913 Q120.394 717.307 126.205 717.307 Z" fill="#000000" fill-rule="evenodd" fill-opacity="1" /><path clip-path="url(#clip330)" d="M146.366 746.612 L151.251 746.612 L151.251 752.492 L146.366 752.492 L146.366 746.612 Z" fill="#000000" fill-rule="evenodd" fill-opacity="1" /><path clip-path="url(#clip330)" d="M161.482 717.932 L179.839 717.932 L179.839 721.867 L165.765 721.867 L165.765 730.339 Q166.783 729.992 167.802 729.83 Q168.82 729.645 169.839 729.645 Q175.626 729.645 179.005 732.816 Q182.385 735.987 182.385 741.404 Q182.385 746.983 178.913 750.085 Q175.44 753.163 169.121 753.163 Q166.945 753.163 164.677 752.793 Q162.431 752.423 160.024 751.682 L160.024 746.983 Q162.107 748.117 164.329 748.673 Q166.552 749.228 169.028 749.228 Q173.033 749.228 175.371 747.122 Q177.709 745.015 177.709 741.404 Q177.709 737.793 175.371 735.687 Q173.033 733.58 169.028 733.58 Q167.153 733.58 165.278 733.997 Q163.427 734.413 161.482 735.293 L161.482 717.932 Z" fill="#000000" fill-rule="evenodd" fill-opacity="1" /><path clip-path="url(#clip330)" d="M201.598 721.011 Q197.987 721.011 196.158 724.575 Q194.352 728.117 194.352 735.247 Q194.352 742.353 196.158 745.918 Q197.987 749.46 201.598 749.46 Q205.232 749.46 207.037 745.918 Q208.866 742.353 208.866 735.247 Q208.866 728.117 207.037 724.575 Q205.232 721.011 201.598 721.011 M201.598 717.307 Q207.408 717.307 210.463 721.913 Q213.542 726.497 213.542 735.247 Q213.542 743.973 210.463 748.58 Q207.408 753.163 201.598 753.163 Q195.787 753.163 192.709 748.58 Q189.653 743.973 189.653 735.247 Q189.653 726.497 192.709 721.913 Q195.787 717.307 201.598 717.307 Z" fill="#000000" fill-rule="evenodd" fill-opacity="1" /><path clip-path="url(#clip330)" d="M127.2 396.498 Q123.589 396.498 121.76 400.062 Q119.955 403.604 119.955 410.734 Q119.955 417.84 121.76 421.405 Q123.589 424.946 127.2 424.946 Q130.834 424.946 132.64 421.405 Q134.468 417.84 134.468 410.734 Q134.468 403.604 132.64 400.062 Q130.834 396.498 127.2 396.498 M127.2 392.794 Q133.01 392.794 136.066 397.4 Q139.144 401.984 139.144 410.734 Q139.144 419.46 136.066 424.067 Q133.01 428.65 127.2 428.65 Q121.39 428.65 118.311 424.067 Q115.256 419.46 115.256 410.734 Q115.256 401.984 118.311 397.4 Q121.39 392.794 127.2 392.794 Z" fill="#000000" fill-rule="evenodd" fill-opacity="1" /><path clip-path="url(#clip330)" d="M147.362 422.099 L152.246 422.099 L152.246 427.979 L147.362 427.979 L147.362 422.099 Z" fill="#000000" fill-rule="evenodd" fill-opacity="1" /><path clip-path="url(#clip330)" d="M161.251 393.419 L183.473 393.419 L183.473 395.41 L170.927 427.979 L166.042 427.979 L177.848 397.354 L161.251 397.354 L161.251 393.419 Z" fill="#000000" fill-rule="evenodd" fill-opacity="1" /><path clip-path="url(#clip330)" d="M192.639 393.419 L210.996 393.419 L210.996 397.354 L196.922 397.354 L196.922 405.826 Q197.94 405.479 198.959 405.317 Q199.977 405.132 200.996 405.132 Q206.783 405.132 210.162 408.303 Q213.542 411.474 213.542 416.891 Q213.542 422.47 210.07 425.571 Q206.598 428.65 200.278 428.65 Q198.102 428.65 195.834 428.28 Q193.588 427.909 191.181 427.169 L191.181 422.47 Q193.264 423.604 195.487 424.159 Q197.709 424.715 200.186 424.715 Q204.19 424.715 206.528 422.608 Q208.866 420.502 208.866 416.891 Q208.866 413.28 206.528 411.173 Q204.19 409.067 200.186 409.067 Q198.311 409.067 196.436 409.484 Q194.584 409.9 192.639 410.78 L192.639 393.419 Z" fill="#000000" fill-rule="evenodd" fill-opacity="1" /><path clip-path="url(#clip330)" d="M117.015 99.5305 L124.654 99.5305 L124.654 73.1649 L116.343 74.8316 L116.343 70.5723 L124.607 68.9057 L129.283 68.9057 L129.283 99.5305 L136.922 99.5305 L136.922 103.466 L117.015 103.466 L117.015 99.5305 Z" fill="#000000" fill-rule="evenodd" fill-opacity="1" /><path clip-path="url(#clip330)" d="M146.366 97.5861 L151.251 97.5861 L151.251 103.466 L146.366 103.466 L146.366 97.5861 Z" fill="#000000" fill-rule="evenodd" fill-opacity="1" /><path clip-path="url(#clip330)" d="M171.436 71.9844 Q167.825 71.9844 165.996 75.5492 Q164.19 79.0908 164.19 86.2204 Q164.19 93.3268 165.996 96.8916 Q167.825 100.433 171.436 100.433 Q175.07 100.433 176.876 96.8916 Q178.704 93.3268 178.704 86.2204 Q178.704 79.0908 176.876 75.5492 Q175.07 71.9844 171.436 71.9844 M171.436 68.2807 Q177.246 68.2807 180.301 72.8871 Q183.38 77.4704 183.38 86.2204 Q183.38 94.9472 180.301 99.5537 Q177.246 104.137 171.436 104.137 Q165.626 104.137 162.547 99.5537 Q159.491 94.9472 159.491 86.2204 Q159.491 77.4704 162.547 72.8871 Q165.626 68.2807 171.436 68.2807 Z" fill="#000000" fill-rule="evenodd" fill-opacity="1" /><path clip-path="url(#clip330)" d="M201.598 71.9844 Q197.987 71.9844 196.158 75.5492 Q194.352 79.0908 194.352 86.2204 Q194.352 93.3268 196.158 96.8916 Q197.987 100.433 201.598 100.433 Q205.232 100.433 207.037 96.8916 Q208.866 93.3268 208.866 86.2204 Q208.866 79.0908 207.037 75.5492 Q205.232 71.9844 201.598 71.9844 M201.598 68.2807 Q207.408 68.2807 210.463 72.8871 Q213.542 77.4704 213.542 86.2204 Q213.542 94.9472 210.463 99.5537 Q207.408 104.137 201.598 104.137 Q195.787 104.137 192.709 99.5537 Q189.653 94.9472 189.653 86.2204 Q189.653 77.4704 192.709 72.8871 Q195.787 68.2807 201.598 68.2807 Z" fill="#000000" fill-rule="evenodd" fill-opacity="1" /><path clip-path="url(#clip330)" d="M16.4842 925.244 L16.4842 918.783 L45.3526 918.783 Q52.9915 918.783 56.3653 916.014 Q59.7073 913.245 59.7073 907.038 Q59.7073 900.864 56.3653 898.094 Q52.9915 895.325 45.3526 895.325 L16.4842 895.325 L16.4842 888.864 L46.1484 888.864 Q55.4423 888.864 60.1847 893.479 Q64.9272 898.063 64.9272 907.038 Q64.9272 916.046 60.1847 920.661 Q55.4423 925.244 46.1484 925.244 L16.4842 925.244 Z" fill="#000000" fill-rule="evenodd" fill-opacity="1" /><path clip-path="url(#clip330)" d="M58.657 871.39 L77.5631 871.39 L77.5631 877.279 L28.3562 877.279 L28.3562 871.39 L33.7671 871.39 Q30.5842 869.544 29.0564 866.743 Q27.4968 863.911 27.4968 859.996 Q27.4968 853.503 32.6531 849.46 Q37.8093 845.386 46.212 845.386 Q54.6147 845.386 59.771 849.46 Q64.9272 853.503 64.9272 859.996 Q64.9272 863.911 63.3994 866.743 Q61.8398 869.544 58.657 871.39 M46.212 851.466 Q39.7508 851.466 36.0905 854.139 Q32.3984 856.781 32.3984 861.428 Q32.3984 866.075 36.0905 868.749 Q39.7508 871.39 46.212 871.39 Q52.6732 871.39 56.3653 868.749 Q60.0256 866.075 60.0256 861.428 Q60.0256 856.781 56.3653 854.139 Q52.6732 851.466 46.212 851.466 Z" fill="#000000" fill-rule="evenodd" fill-opacity="1" /><path clip-path="url(#clip330)" d="M33.7671 812.221 L14.479 812.221 L14.479 806.365 L64.0042 806.365 L64.0042 812.221 L58.657 812.221 Q61.8398 814.067 63.3994 816.9 Q64.9272 819.701 64.9272 823.648 Q64.9272 830.109 59.771 834.183 Q54.6147 838.225 46.212 838.225 Q37.8093 838.225 32.6531 834.183 Q27.4968 830.109 27.4968 823.648 Q27.4968 819.701 29.0564 816.9 Q30.5842 814.067 33.7671 812.221 M46.212 832.178 Q52.6732 832.178 56.3653 829.536 Q60.0256 826.862 60.0256 822.215 Q60.0256 817.568 56.3653 814.895 Q52.6732 812.221 46.212 812.221 Q39.7508 812.221 36.0905 814.895 Q32.3984 817.568 32.3984 822.215 Q32.3984 826.862 36.0905 829.536 Q39.7508 832.178 46.212 832.178 Z" fill="#000000" fill-rule="evenodd" fill-opacity="1" /><path clip-path="url(#clip330)" d="M46.0847 778.101 Q46.0847 785.199 47.7079 787.936 Q49.3312 790.673 53.2461 790.673 Q56.3653 790.673 58.2114 788.636 Q60.0256 786.567 60.0256 783.034 Q60.0256 778.165 56.5881 775.236 Q53.1188 772.276 47.3897 772.276 L46.0847 772.276 L46.0847 778.101 M43.6657 766.42 L64.0042 766.42 L64.0042 772.276 L58.5933 772.276 Q61.8398 774.281 63.3994 777.273 Q64.9272 780.265 64.9272 784.594 Q64.9272 790.068 61.8716 793.315 Q58.7843 796.53 53.6281 796.53 Q47.6125 796.53 44.5569 792.519 Q41.5014 788.477 41.5014 780.488 L41.5014 772.276 L40.9285 772.276 Q36.8862 772.276 34.6901 774.95 Q32.4621 777.592 32.4621 782.398 Q32.4621 785.453 33.1941 788.35 Q33.9262 791.246 35.3903 793.92 L29.9795 793.92 Q28.7381 790.705 28.1334 787.681 Q27.4968 784.658 27.4968 781.793 Q27.4968 774.059 31.5072 770.239 Q35.5176 766.42 43.6657 766.42 Z" fill="#000000" fill-rule="evenodd" fill-opacity="1" /><path clip-path="url(#clip330)" d="M18.2347 748.564 L28.3562 748.564 L28.3562 736.501 L32.9077 736.501 L32.9077 748.564 L52.2594 748.564 Q56.6199 748.564 57.8613 747.386 Q59.1026 746.177 59.1026 742.517 L59.1026 736.501 L64.0042 736.501 L64.0042 742.517 Q64.0042 749.296 61.4897 751.874 Q58.9434 754.452 52.2594 754.452 L32.9077 754.452 L32.9077 758.749 L28.3562 758.749 L28.3562 754.452 L18.2347 754.452 L18.2347 748.564 Z" fill="#000000" fill-rule="evenodd" fill-opacity="1" /><path clip-path="url(#clip330)" d="M44.7161 698.307 L47.5806 698.307 L47.5806 725.234 Q53.6281 724.852 56.8109 721.605 Q59.9619 718.327 59.9619 712.502 Q59.9619 709.128 59.1344 705.977 Q58.3069 702.795 56.6518 699.675 L62.1899 699.675 Q63.5267 702.826 64.227 706.137 Q64.9272 709.447 64.9272 712.852 Q64.9272 721.382 59.9619 726.38 Q54.9967 731.345 46.5303 731.345 Q37.7774 731.345 32.6531 726.634 Q27.4968 721.892 27.4968 713.871 Q27.4968 706.678 32.1438 702.508 Q36.7589 698.307 44.7161 698.307 M42.9973 704.163 Q38.1912 704.227 35.3266 706.869 Q32.4621 709.479 32.4621 713.807 Q32.4621 718.709 35.2312 721.669 Q38.0002 724.597 43.0292 725.043 L42.9973 704.163 Z" fill="#000000" fill-rule="evenodd" fill-opacity="1" /><path clip-path="url(#clip330)" d="M33.8307 647.317 Q33.2578 648.304 33.0032 649.482 Q32.7167 650.628 32.7167 652.028 Q32.7167 656.993 35.9632 659.667 Q39.1779 662.309 45.2253 662.309 L64.0042 662.309 L64.0042 668.197 L28.3562 668.197 L28.3562 662.309 L33.8944 662.309 Q30.6479 660.463 29.0883 657.503 Q27.4968 654.543 27.4968 650.309 Q27.4968 649.705 27.5923 648.973 Q27.656 648.241 27.8151 647.349 L33.8307 647.317 Z" fill="#000000" fill-rule="evenodd" fill-opacity="1" /><path clip-path="url(#clip330)" d="M46.0847 624.974 Q46.0847 632.072 47.7079 634.809 Q49.3312 637.546 53.2461 637.546 Q56.3653 637.546 58.2114 635.509 Q60.0256 633.44 60.0256 629.907 Q60.0256 625.038 56.5881 622.109 Q53.1188 619.149 47.3897 619.149 L46.0847 619.149 L46.0847 624.974 M43.6657 613.293 L64.0042 613.293 L64.0042 619.149 L58.5933 619.149 Q61.8398 621.154 63.3994 624.146 Q64.9272 627.138 64.9272 631.467 Q64.9272 636.941 61.8716 640.188 Q58.7843 643.403 53.6281 643.403 Q47.6125 643.403 44.5569 639.392 Q41.5014 635.35 41.5014 627.361 L41.5014 619.149 L40.9285 619.149 Q36.8862 619.149 34.6901 621.823 Q32.4621 624.465 32.4621 629.271 Q32.4621 632.326 33.1941 635.223 Q33.9262 638.119 35.3903 640.793 L29.9795 640.793 Q28.7381 637.578 28.1334 634.554 Q27.4968 631.531 27.4968 628.666 Q27.4968 620.932 31.5072 617.112 Q35.5176 613.293 43.6657 613.293 Z" fill="#000000" fill-rule="evenodd" fill-opacity="1" /><path clip-path="url(#clip330)" d="M18.2347 595.437 L28.3562 595.437 L28.3562 583.374 L32.9077 583.374 L32.9077 595.437 L52.2594 595.437 Q56.6199 595.437 57.8613 594.259 Q59.1026 593.05 59.1026 589.39 L59.1026 583.374 L64.0042 583.374 L64.0042 589.39 Q64.0042 596.169 61.4897 598.747 Q58.9434 601.325 52.2594 601.325 L32.9077 601.325 L32.9077 605.622 L28.3562 605.622 L28.3562 601.325 L18.2347 601.325 L18.2347 595.437 Z" fill="#000000" fill-rule="evenodd" fill-opacity="1" /><path clip-path="url(#clip330)" d="M44.7161 545.18 L47.5806 545.18 L47.5806 572.107 Q53.6281 571.725 56.8109 568.478 Q59.9619 565.2 59.9619 559.375 Q59.9619 556.001 59.1344 552.85 Q58.3069 549.668 56.6518 546.548 L62.1899 546.548 Q63.5267 549.699 64.227 553.01 Q64.9272 556.32 64.9272 559.725 Q64.9272 568.255 59.9619 573.252 Q54.9967 578.218 46.5303 578.218 Q37.7774 578.218 32.6531 573.507 Q27.4968 568.765 27.4968 560.744 Q27.4968 553.551 32.1438 549.381 Q36.7589 545.18 44.7161 545.18 M42.9973 551.036 Q38.1912 551.1 35.3266 553.742 Q32.4621 556.352 32.4621 560.68 Q32.4621 565.582 35.2312 568.542 Q38.0002 571.47 43.0292 571.916 L42.9973 551.036 Z" fill="#000000" fill-rule="evenodd" fill-opacity="1" /><polyline clip-path="url(#clip332)" style="stroke:#009af9; stroke-linecap:butt; stroke-linejoin:round; stroke-width:4; stroke-opacity:1; fill:none" points="
  309.067,1384.24 319.038,1384.24 329.008,1384.24 338.979,1384.24 348.95,1384.24 358.92,1384.24 368.891,1384.24 378.862,1384.24 388.832,1384.24 398.803,1384.24 
  408.774,1384.24 418.744,1384.24 428.715,1384.24 438.686,1384.24 448.656,1384.24 458.627,1384.24 468.598,1384.24 478.568,1384.24 488.539,1384.24 498.51,1384.24 
  508.48,1384.24 518.451,1384.24 528.422,1384.24 538.392,1384.24 548.363,1384.24 558.334,1384.24 568.304,1384.24 578.275,1384.24 588.246,1384.24 598.216,1384.24 
  608.187,1384.24 618.158,1384.24 628.129,1384.24 638.099,1384.24 648.07,1384.24 658.041,1384.24 668.011,1384.24 677.982,1384.24 687.953,1384.24 697.923,1384.24 
  707.894,1384.24 717.865,1384.24 727.835,1384.24 737.806,1384.24 747.777,1384.24 757.747,1384.24 767.718,1384.24 777.689,1384.24 787.659,1384.24 797.63,1384.24 
  807.601,1384.24 817.571,1384.24 827.542,1384.24 837.513,1384.24 847.483,1384.24 857.454,1384.24 867.425,1384.24 877.395,1384.24 887.366,1384.24 897.337,1384.24 
  907.307,1384.24 917.278,1384.24 927.249,1384.24 937.219,1384.24 947.19,1384.24 957.161,1384.24 967.131,1384.24 977.102,1384.24 987.073,1384.24 997.043,1384.24 
  1007.01,1384.24 1016.98,1384.24 1026.96,1384.24 1036.93,1384.24 1046.9,1384.24 1056.87,1384.24 1066.84,1384.24 1076.81,1384.24 1086.78,1384.24 1096.75,1384.24 
  1106.72,1384.24 1116.69,1384.24 1126.66,1384.24 1136.63,1384.24 1146.6,1384.24 1156.57,1384.24 1166.54,1384.24 1176.52,1384.24 1186.49,1384.24 1196.46,1384.24 
  1206.43,1384.24 1216.4,1384.24 1226.37,1384.24 1236.34,1384.24 1246.31,1384.24 1256.28,1384.24 1266.25,1384.24 1276.22,1384.24 1286.19,1384.24 1296.16,1384.24 
  1306.13,1384.24 1316.1,1384.24 1326.08,1384.24 1336.05,1384.24 1346.02,1384.24 1355.99,1384.24 1365.96,1384.24 1375.93,1384.24 1385.9,1384.24 1395.87,1384.24 
  1405.84,1384.24 1415.81,1384.24 1425.78,1384.24 1435.75,1384.24 1445.72,1384.24 1455.69,1384.24 1465.67,1384.24 1475.64,1384.24 1485.61,1384.24 1495.58,1384.24 
  1505.55,1384.24 1515.52,1384.24 1525.49,1384.24 1535.46,1384.24 1545.43,1384.24 1555.4,1384.24 1565.37,1384.24 1575.34,1384.24 1585.31,1384.24 1595.28,1384.24 
  1605.25,1384.24 1615.23,1384.24 1625.2,1384.24 1635.17,1384.24 1645.14,1384.24 1655.11,1384.24 1665.08,1384.24 1675.05,1384.24 1685.02,1384.24 1694.99,1384.24 
  1704.96,1384.24 1714.93,1384.24 1724.9,1384.24 1734.87,1384.24 1744.84,1384.24 1754.81,1384.24 1764.79,1384.24 1774.76,1384.24 1784.73,1379.05 1794.7,1379.05 
  1804.67,1379.05 1814.64,1379.05 1824.61,1379.05 1834.58,1379.05 1844.55,1379.05 1854.52,1379.05 1864.49,1379.05 1874.46,1379.05 1884.43,1371.26 1894.4,1368.66 
  1904.37,1353.09 1914.35,1350.49 1924.32,1332.32 1934.29,1319.34 1944.26,1319.34 1954.23,1314.14 1964.2,1303.76 1974.17,1290.78 1984.14,1277.8 1994.11,1267.41 
  2004.08,1262.22 2014.05,1249.24 2024.02,1236.26 2033.99,1220.68 2043.96,1207.7 2053.93,1197.32 2063.91,1184.34 2073.88,1173.95 2083.85,1160.97 2093.82,1137.61 
  2103.79,1135.01 2113.76,1114.24 2123.73,1077.9 2133.7,1031.17 2143.67,1007.8 2153.64,984.438 2163.61,932.516 2173.58,877.998 2183.55,852.037 2193.52,831.268 
  2203.49,805.307 2213.47,766.365 2223.44,748.192 2233.41,719.635 2243.38,680.694 2253.35,467.813 2263.32,392.526 2273.29,345.796 2283.26,283.49 2293.23,197.818 
  
  "/>
<polyline clip-path="url(#clip332)" style="stroke:#e26f46; stroke-linecap:butt; stroke-linejoin:round; stroke-width:4; stroke-opacity:1; fill:none" points="
  -1853.67,151.088 4455.97,151.088 
  "/>
<path clip-path="url(#clip330)" d="
M319.649 1377.32 L672.367 1377.32 L672.367 1273.64 L319.649 1273.64  Z
  " fill="#ffffff" fill-rule="evenodd" fill-opacity="1"/>
<polyline clip-path="url(#clip330)" style="stroke:#000000; stroke-linecap:butt; stroke-linejoin:round; stroke-width:4; stroke-opacity:1; fill:none" points="
  319.649,1377.32 672.367,1377.32 672.367,1273.64 319.649,1273.64 319.649,1377.32 
  "/>
<polyline clip-path="url(#clip330)" style="stroke:#e26f46; stroke-linecap:butt; stroke-linejoin:round; stroke-width:4; stroke-opacity:1; fill:none" points="
  343.018,1325.48 483.232,1325.48 
  "/>
<path clip-path="url(#clip330)" d="M506.602 1308.2 L512.898 1308.2 L528.222 1337.11 L528.222 1308.2 L532.759 1308.2 L532.759 1342.76 L526.463 1342.76 L511.139 1313.84 L511.139 1342.76 L506.602 1342.76 L506.602 1308.2 Z" fill="#000000" fill-rule="evenodd" fill-opacity="1" /><path clip-path="url(#clip330)" d="M542.967 1336.88 L547.851 1336.88 L547.851 1342.76 L542.967 1342.76 L542.967 1336.88 M542.967 1318.24 L547.851 1318.24 L547.851 1324.12 L542.967 1324.12 L542.967 1318.24 Z" fill="#000000" fill-rule="evenodd" fill-opacity="1" /><path clip-path="url(#clip330)" d="M577.55 1338.82 L593.87 1338.82 L593.87 1342.76 L571.925 1342.76 L571.925 1338.82 Q574.587 1336.07 579.171 1331.44 Q583.777 1326.78 584.958 1325.44 Q587.203 1322.92 588.083 1321.18 Q588.985 1319.42 588.985 1317.73 Q588.985 1314.98 587.041 1313.24 Q585.12 1311.51 582.018 1311.51 Q579.819 1311.51 577.365 1312.27 Q574.934 1313.03 572.157 1314.58 L572.157 1309.86 Q574.981 1308.73 577.434 1308.15 Q579.888 1307.57 581.925 1307.57 Q587.296 1307.57 590.49 1310.26 Q593.684 1312.94 593.684 1317.43 Q593.684 1319.56 592.874 1321.48 Q592.087 1323.38 589.981 1325.97 Q589.402 1326.64 586.3 1329.86 Q583.198 1333.06 577.55 1338.82 Z" fill="#000000" fill-rule="evenodd" fill-opacity="1" /><path clip-path="url(#clip330)" d="M613.684 1311.27 Q610.073 1311.27 608.244 1314.84 Q606.439 1318.38 606.439 1325.51 Q606.439 1332.62 608.244 1336.18 Q610.073 1339.72 613.684 1339.72 Q617.319 1339.72 619.124 1336.18 Q620.953 1332.62 620.953 1325.51 Q620.953 1318.38 619.124 1314.84 Q617.319 1311.27 613.684 1311.27 M613.684 1307.57 Q619.494 1307.57 622.55 1312.18 Q625.629 1316.76 625.629 1325.51 Q625.629 1334.24 622.55 1338.84 Q619.494 1343.43 613.684 1343.43 Q607.874 1343.43 604.795 1338.84 Q601.74 1334.24 601.74 1325.51 Q601.74 1316.76 604.795 1312.18 Q607.874 1307.57 613.684 1307.57 Z" fill="#000000" fill-rule="evenodd" fill-opacity="1" /></svg>
