<?xml version="1.0" encoding="utf-8"?>
<svg xmlns="http://www.w3.org/2000/svg" xmlns:xlink="http://www.w3.org/1999/xlink" width="600" height="400" viewBox="0 0 2400 1600">
<defs>
  <clipPath id="clip270">
    <rect x="0" y="0" width="2400" height="1600"/>
  </clipPath>
</defs>
<path clip-path="url(#clip270)" d="
M0 1600 L2400 1600 L2400 0 L0 0  Z
  " fill="#ffffff" fill-rule="evenodd" fill-opacity="1"/>
<defs>
  <clipPath id="clip271">
    <rect x="480" y="0" width="1681" height="1600"/>
  </clipPath>
</defs>
<path clip-path="url(#clip270)" d="
M178.867 1423.18 L2352.76 1423.18 L2352.76 47.2441 L178.867 47.2441  Z
  " fill="#ffffff" fill-rule="evenodd" fill-opacity="1"/>
<defs>
  <clipPath id="clip272">
    <rect x="178" y="47" width="2175" height="1377"/>
  </clipPath>
</defs>
<polyline clip-path="url(#clip272)" style="stroke:#000000; stroke-linecap:butt; stroke-linejoin:round; stroke-width:2; stroke-opacity:0.1; fill:none" points="
  230.086,1423.18 230.086,47.2441 
  "/>
<polyline clip-path="url(#clip272)" style="stroke:#000000; stroke-linecap:butt; stroke-linejoin:round; stroke-width:2; stroke-opacity:0.1; fill:none" points="
  745.372,1423.18 745.372,47.2441 
  "/>
<polyline clip-path="url(#clip272)" style="stroke:#000000; stroke-linecap:butt; stroke-linejoin:round; stroke-width:2; stroke-opacity:0.1; fill:none" points="
  1260.66,1423.18 1260.66,47.2441 
  "/>
<polyline clip-path="url(#clip272)" style="stroke:#000000; stroke-linecap:butt; stroke-linejoin:round; stroke-width:2; stroke-opacity:0.1; fill:none" points="
  1775.94,1423.18 1775.94,47.2441 
  "/>
<polyline clip-path="url(#clip272)" style="stroke:#000000; stroke-linecap:butt; stroke-linejoin:round; stroke-width:2; stroke-opacity:0.1; fill:none" points="
  2291.23,1423.18 2291.23,47.2441 
  "/>
<polyline clip-path="url(#clip270)" style="stroke:#000000; stroke-linecap:butt; stroke-linejoin:round; stroke-width:4; stroke-opacity:1; fill:none" points="
  178.867,1423.18 2352.76,1423.18 
  "/>
<polyline clip-path="url(#clip270)" style="stroke:#000000; stroke-linecap:butt; stroke-linejoin:round; stroke-width:4; stroke-opacity:1; fill:none" points="
  230.086,1423.18 230.086,1404.28 
  "/>
<polyline clip-path="url(#clip270)" style="stroke:#000000; stroke-linecap:butt; stroke-linejoin:round; stroke-width:4; stroke-opacity:1; fill:none" points="
  745.372,1423.18 745.372,1404.28 
  "/>
<polyline clip-path="url(#clip270)" style="stroke:#000000; stroke-linecap:butt; stroke-linejoin:round; stroke-width:4; stroke-opacity:1; fill:none" points="
  1260.66,1423.18 1260.66,1404.28 
  "/>
<polyline clip-path="url(#clip270)" style="stroke:#000000; stroke-linecap:butt; stroke-linejoin:round; stroke-width:4; stroke-opacity:1; fill:none" points="
  1775.94,1423.18 1775.94,1404.28 
  "/>
<polyline clip-path="url(#clip270)" style="stroke:#000000; stroke-linecap:butt; stroke-linejoin:round; stroke-width:4; stroke-opacity:1; fill:none" points="
  2291.23,1423.18 2291.23,1404.28 
  "/>
<path clip-path="url(#clip270)" d="M230.086 1454.1 Q226.475 1454.1 224.646 1457.66 Q222.841 1461.2 222.841 1468.33 Q222.841 1475.44 224.646 1479.01 Q226.475 1482.55 230.086 1482.55 Q233.72 1482.55 235.526 1479.01 Q237.355 1475.44 237.355 1468.33 Q237.355 1461.2 235.526 1457.66 Q233.72 1454.1 230.086 1454.1 M230.086 1450.39 Q235.896 1450.39 238.952 1455 Q242.03 1459.58 242.03 1468.33 Q242.03 1477.06 238.952 1481.67 Q235.896 1486.25 230.086 1486.25 Q224.276 1486.25 221.197 1481.67 Q218.142 1477.06 218.142 1468.33 Q218.142 1459.58 221.197 1455 Q224.276 1450.39 230.086 1450.39 Z" fill="#000000" fill-rule="evenodd" fill-opacity="1" /><path clip-path="url(#clip270)" d="M720.071 1451.02 L738.428 1451.02 L738.428 1454.96 L724.354 1454.96 L724.354 1463.43 Q725.372 1463.08 726.391 1462.92 Q727.409 1462.73 728.428 1462.73 Q734.215 1462.73 737.595 1465.9 Q740.974 1469.08 740.974 1474.49 Q740.974 1480.07 737.502 1483.17 Q734.03 1486.25 727.71 1486.25 Q725.534 1486.25 723.266 1485.88 Q721.021 1485.51 718.613 1484.77 L718.613 1480.07 Q720.696 1481.2 722.919 1481.76 Q725.141 1482.32 727.618 1482.32 Q731.622 1482.32 733.96 1480.21 Q736.298 1478.1 736.298 1474.49 Q736.298 1470.88 733.96 1468.77 Q731.622 1466.67 727.618 1466.67 Q725.743 1466.67 723.868 1467.08 Q722.016 1467.5 720.071 1468.38 L720.071 1451.02 Z" fill="#000000" fill-rule="evenodd" fill-opacity="1" /><path clip-path="url(#clip270)" d="M760.187 1454.1 Q756.576 1454.1 754.747 1457.66 Q752.942 1461.2 752.942 1468.33 Q752.942 1475.44 754.747 1479.01 Q756.576 1482.55 760.187 1482.55 Q763.821 1482.55 765.627 1479.01 Q767.455 1475.44 767.455 1468.33 Q767.455 1461.2 765.627 1457.66 Q763.821 1454.1 760.187 1454.1 M760.187 1450.39 Q765.997 1450.39 769.053 1455 Q772.131 1459.58 772.131 1468.33 Q772.131 1477.06 769.053 1481.67 Q765.997 1486.25 760.187 1486.25 Q754.377 1486.25 751.298 1481.67 Q748.243 1477.06 748.243 1468.33 Q748.243 1459.58 751.298 1455 Q754.377 1450.39 760.187 1450.39 Z" fill="#000000" fill-rule="evenodd" fill-opacity="1" /><path clip-path="url(#clip270)" d="M1220.27 1481.64 L1227.9 1481.64 L1227.9 1455.28 L1219.59 1456.95 L1219.59 1452.69 L1227.86 1451.02 L1232.53 1451.02 L1232.53 1481.64 L1240.17 1481.64 L1240.17 1485.58 L1220.27 1485.58 L1220.27 1481.64 Z" fill="#000000" fill-rule="evenodd" fill-opacity="1" /><path clip-path="url(#clip270)" d="M1259.62 1454.1 Q1256.01 1454.1 1254.18 1457.66 Q1252.37 1461.2 1252.37 1468.33 Q1252.37 1475.44 1254.18 1479.01 Q1256.01 1482.55 1259.62 1482.55 Q1263.25 1482.55 1265.06 1479.01 Q1266.89 1475.44 1266.89 1468.33 Q1266.89 1461.2 1265.06 1457.66 Q1263.25 1454.1 1259.62 1454.1 M1259.62 1450.39 Q1265.43 1450.39 1268.48 1455 Q1271.56 1459.58 1271.56 1468.33 Q1271.56 1477.06 1268.48 1481.67 Q1265.43 1486.25 1259.62 1486.25 Q1253.81 1486.25 1250.73 1481.67 Q1247.67 1477.06 1247.67 1468.33 Q1247.67 1459.58 1250.73 1455 Q1253.81 1450.39 1259.62 1450.39 Z" fill="#000000" fill-rule="evenodd" fill-opacity="1" /><path clip-path="url(#clip270)" d="M1289.78 1454.1 Q1286.17 1454.1 1284.34 1457.66 Q1282.53 1461.2 1282.53 1468.33 Q1282.53 1475.44 1284.34 1479.01 Q1286.17 1482.55 1289.78 1482.55 Q1293.41 1482.55 1295.22 1479.01 Q1297.05 1475.44 1297.05 1468.33 Q1297.05 1461.2 1295.22 1457.66 Q1293.41 1454.1 1289.78 1454.1 M1289.78 1450.39 Q1295.59 1450.39 1298.64 1455 Q1301.72 1459.58 1301.72 1468.33 Q1301.72 1477.06 1298.64 1481.67 Q1295.59 1486.25 1289.78 1486.25 Q1283.97 1486.25 1280.89 1481.67 Q1277.83 1477.06 1277.83 1468.33 Q1277.83 1459.58 1280.89 1455 Q1283.97 1450.39 1289.78 1450.39 Z" fill="#000000" fill-rule="evenodd" fill-opacity="1" /><path clip-path="url(#clip270)" d="M1735.55 1481.64 L1743.19 1481.64 L1743.19 1455.28 L1734.88 1456.95 L1734.88 1452.69 L1743.14 1451.02 L1747.82 1451.02 L1747.82 1481.64 L1755.46 1481.64 L1755.46 1485.58 L1735.55 1485.58 L1735.55 1481.64 Z" fill="#000000" fill-rule="evenodd" fill-opacity="1" /><path clip-path="url(#clip270)" d="M1764.95 1451.02 L1783.31 1451.02 L1783.31 1454.96 L1769.23 1454.96 L1769.23 1463.43 Q1770.25 1463.08 1771.27 1462.92 Q1772.29 1462.73 1773.31 1462.73 Q1779.09 1462.73 1782.47 1465.9 Q1785.85 1469.08 1785.85 1474.49 Q1785.85 1480.07 1782.38 1483.17 Q1778.91 1486.25 1772.59 1486.25 Q1770.41 1486.25 1768.14 1485.88 Q1765.9 1485.51 1763.49 1484.77 L1763.49 1480.07 Q1765.57 1481.2 1767.8 1481.76 Q1770.02 1482.32 1772.5 1482.32 Q1776.5 1482.32 1778.84 1480.21 Q1781.18 1478.1 1781.18 1474.49 Q1781.18 1470.88 1778.84 1468.77 Q1776.5 1466.67 1772.5 1466.67 Q1770.62 1466.67 1768.75 1467.08 Q1766.89 1467.5 1764.95 1468.38 L1764.95 1451.02 Z" fill="#000000" fill-rule="evenodd" fill-opacity="1" /><path clip-path="url(#clip270)" d="M1805.06 1454.1 Q1801.45 1454.1 1799.63 1457.66 Q1797.82 1461.2 1797.82 1468.33 Q1797.82 1475.44 1799.63 1479.01 Q1801.45 1482.55 1805.06 1482.55 Q1808.7 1482.55 1810.5 1479.01 Q1812.33 1475.44 1812.33 1468.33 Q1812.33 1461.2 1810.5 1457.66 Q1808.7 1454.1 1805.06 1454.1 M1805.06 1450.39 Q1810.87 1450.39 1813.93 1455 Q1817.01 1459.58 1817.01 1468.33 Q1817.01 1477.06 1813.93 1481.67 Q1810.87 1486.25 1805.06 1486.25 Q1799.25 1486.25 1796.18 1481.67 Q1793.12 1477.06 1793.12 1468.33 Q1793.12 1459.58 1796.18 1455 Q1799.25 1450.39 1805.06 1450.39 Z" fill="#000000" fill-rule="evenodd" fill-opacity="1" /><path clip-path="url(#clip270)" d="M2254.92 1481.64 L2271.24 1481.64 L2271.24 1485.58 L2249.3 1485.58 L2249.3 1481.64 Q2251.96 1478.89 2256.54 1474.26 Q2261.15 1469.61 2262.33 1468.27 Q2264.58 1465.74 2265.46 1464.01 Q2266.36 1462.25 2266.36 1460.56 Q2266.36 1457.8 2264.41 1456.07 Q2262.49 1454.33 2259.39 1454.33 Q2257.19 1454.33 2254.74 1455.09 Q2252.31 1455.86 2249.53 1457.41 L2249.53 1452.69 Q2252.35 1451.55 2254.81 1450.97 Q2257.26 1450.39 2259.3 1450.39 Q2264.67 1450.39 2267.86 1453.08 Q2271.06 1455.77 2271.06 1460.26 Q2271.06 1462.39 2270.25 1464.31 Q2269.46 1466.2 2267.35 1468.8 Q2266.77 1469.47 2263.67 1472.69 Q2260.57 1475.88 2254.92 1481.64 Z" fill="#000000" fill-rule="evenodd" fill-opacity="1" /><path clip-path="url(#clip270)" d="M2291.06 1454.1 Q2287.45 1454.1 2285.62 1457.66 Q2283.81 1461.2 2283.81 1468.33 Q2283.81 1475.44 2285.62 1479.01 Q2287.45 1482.55 2291.06 1482.55 Q2294.69 1482.55 2296.5 1479.01 Q2298.33 1475.44 2298.33 1468.33 Q2298.33 1461.2 2296.5 1457.66 Q2294.69 1454.1 2291.06 1454.1 M2291.06 1450.39 Q2296.87 1450.39 2299.92 1455 Q2303 1459.58 2303 1468.33 Q2303 1477.06 2299.92 1481.67 Q2296.87 1486.25 2291.06 1486.25 Q2285.25 1486.25 2282.17 1481.67 Q2279.11 1477.06 2279.11 1468.33 Q2279.11 1459.58 2282.17 1455 Q2285.25 1450.39 2291.06 1450.39 Z" fill="#000000" fill-rule="evenodd" fill-opacity="1" /><path clip-path="url(#clip270)" d="M2321.22 1454.1 Q2317.61 1454.1 2315.78 1457.66 Q2313.97 1461.2 2313.97 1468.33 Q2313.97 1475.44 2315.78 1479.01 Q2317.61 1482.55 2321.22 1482.55 Q2324.85 1482.55 2326.66 1479.01 Q2328.49 1475.44 2328.49 1468.33 Q2328.49 1461.2 2326.66 1457.66 Q2324.85 1454.1 2321.22 1454.1 M2321.22 1450.39 Q2327.03 1450.39 2330.08 1455 Q2333.16 1459.58 2333.16 1468.33 Q2333.16 1477.06 2330.08 1481.67 Q2327.03 1486.25 2321.22 1486.25 Q2315.41 1486.25 2312.33 1481.67 Q2309.27 1477.06 2309.27 1468.33 Q2309.27 1459.58 2312.33 1455 Q2315.41 1450.39 2321.22 1450.39 Z" fill="#000000" fill-rule="evenodd" fill-opacity="1" /><path clip-path="url(#clip270)" d="M1282.43 1532.4 L1269.54 1549.74 L1283.09 1568.04 L1276.19 1568.04 L1265.81 1554.04 L1255.44 1568.04 L1248.53 1568.04 L1262.37 1549.39 L1249.71 1532.4 L1256.61 1532.4 L1266.07 1545.1 L1275.52 1532.4 L1282.43 1532.4 Z" fill="#000000" fill-rule="evenodd" fill-opacity="1" /><polyline clip-path="url(#clip272)" style="stroke:#000000; stroke-linecap:butt; stroke-linejoin:round; stroke-width:2; stroke-opacity:0.1; fill:none" points="
  178.867,1258.25 2352.76,1258.25 
  "/>
<polyline clip-path="url(#clip272)" style="stroke:#000000; stroke-linecap:butt; stroke-linejoin:round; stroke-width:2; stroke-opacity:0.1; fill:none" points="
  178.867,1041.37 2352.76,1041.37 
  "/>
<polyline clip-path="url(#clip272)" style="stroke:#000000; stroke-linecap:butt; stroke-linejoin:round; stroke-width:2; stroke-opacity:0.1; fill:none" points="
  178.867,824.494 2352.76,824.494 
  "/>
<polyline clip-path="url(#clip272)" style="stroke:#000000; stroke-linecap:butt; stroke-linejoin:round; stroke-width:2; stroke-opacity:0.1; fill:none" points="
  178.867,607.617 2352.76,607.617 
  "/>
<polyline clip-path="url(#clip272)" style="stroke:#000000; stroke-linecap:butt; stroke-linejoin:round; stroke-width:2; stroke-opacity:0.1; fill:none" points="
  178.867,390.74 2352.76,390.74 
  "/>
<polyline clip-path="url(#clip272)" style="stroke:#000000; stroke-linecap:butt; stroke-linejoin:round; stroke-width:2; stroke-opacity:0.1; fill:none" points="
  178.867,173.863 2352.76,173.863 
  "/>
<polyline clip-path="url(#clip270)" style="stroke:#000000; stroke-linecap:butt; stroke-linejoin:round; stroke-width:4; stroke-opacity:1; fill:none" points="
  178.867,1423.18 178.867,47.2441 
  "/>
<polyline clip-path="url(#clip270)" style="stroke:#000000; stroke-linecap:butt; stroke-linejoin:round; stroke-width:4; stroke-opacity:1; fill:none" points="
  178.867,1258.25 197.764,1258.25 
  "/>
<polyline clip-path="url(#clip270)" style="stroke:#000000; stroke-linecap:butt; stroke-linejoin:round; stroke-width:4; stroke-opacity:1; fill:none" points="
  178.867,1041.37 197.764,1041.37 
  "/>
<polyline clip-path="url(#clip270)" style="stroke:#000000; stroke-linecap:butt; stroke-linejoin:round; stroke-width:4; stroke-opacity:1; fill:none" points="
  178.867,824.494 197.764,824.494 
  "/>
<polyline clip-path="url(#clip270)" style="stroke:#000000; stroke-linecap:butt; stroke-linejoin:round; stroke-width:4; stroke-opacity:1; fill:none" points="
  178.867,607.617 197.764,607.617 
  "/>
<polyline clip-path="url(#clip270)" style="stroke:#000000; stroke-linecap:butt; stroke-linejoin:round; stroke-width:4; stroke-opacity:1; fill:none" points="
  178.867,390.74 197.764,390.74 
  "/>
<polyline clip-path="url(#clip270)" style="stroke:#000000; stroke-linecap:butt; stroke-linejoin:round; stroke-width:4; stroke-opacity:1; fill:none" points="
  178.867,173.863 197.764,173.863 
  "/>
<path clip-path="url(#clip270)" d="M51.9875 1258.7 L81.6633 1258.7 L81.6633 1262.64 L51.9875 1262.64 L51.9875 1258.7 Z" fill="#000000" fill-rule="evenodd" fill-opacity="1" /><path clip-path="url(#clip270)" d="M92.566 1271.59 L100.205 1271.59 L100.205 1245.23 L91.8947 1246.89 L91.8947 1242.64 L100.159 1240.97 L104.834 1240.97 L104.834 1271.59 L112.473 1271.59 L112.473 1275.53 L92.566 1275.53 L92.566 1271.59 Z" fill="#000000" fill-rule="evenodd" fill-opacity="1" /><path clip-path="url(#clip270)" d="M121.964 1240.97 L140.32 1240.97 L140.32 1244.9 L126.246 1244.9 L126.246 1253.38 Q127.265 1253.03 128.283 1252.87 Q129.302 1252.68 130.32 1252.68 Q136.107 1252.68 139.487 1255.85 Q142.867 1259.02 142.867 1264.44 Q142.867 1270.02 139.394 1273.12 Q135.922 1276.2 129.603 1276.2 Q127.427 1276.2 125.158 1275.83 Q122.913 1275.46 120.506 1274.72 L120.506 1270.02 Q122.589 1271.15 124.811 1271.71 Q127.033 1272.27 129.51 1272.27 Q133.515 1272.27 135.853 1270.16 Q138.191 1268.05 138.191 1264.44 Q138.191 1260.83 135.853 1258.72 Q133.515 1256.62 129.51 1256.62 Q127.635 1256.62 125.76 1257.03 Q123.908 1257.45 121.964 1258.33 L121.964 1240.97 Z" fill="#000000" fill-rule="evenodd" fill-opacity="1" /><path clip-path="url(#clip270)" d="M50.9921 1041.82 L80.6679 1041.82 L80.6679 1045.76 L50.9921 1045.76 L50.9921 1041.82 Z" fill="#000000" fill-rule="evenodd" fill-opacity="1" /><path clip-path="url(#clip270)" d="M91.5706 1054.72 L99.2095 1054.72 L99.2095 1028.35 L90.8993 1030.02 L90.8993 1025.76 L99.1632 1024.09 L103.839 1024.09 L103.839 1054.72 L111.478 1054.72 L111.478 1058.65 L91.5706 1058.65 L91.5706 1054.72 Z" fill="#000000" fill-rule="evenodd" fill-opacity="1" /><path clip-path="url(#clip270)" d="M130.922 1027.17 Q127.311 1027.17 125.482 1030.74 Q123.677 1034.28 123.677 1041.41 Q123.677 1048.51 125.482 1052.08 Q127.311 1055.62 130.922 1055.62 Q134.556 1055.62 136.362 1052.08 Q138.191 1048.51 138.191 1041.41 Q138.191 1034.28 136.362 1030.74 Q134.556 1027.17 130.922 1027.17 M130.922 1023.47 Q136.732 1023.47 139.788 1028.07 Q142.867 1032.66 142.867 1041.41 Q142.867 1050.13 139.788 1054.74 Q136.732 1059.32 130.922 1059.32 Q125.112 1059.32 122.033 1054.74 Q118.978 1050.13 118.978 1041.41 Q118.978 1032.66 122.033 1028.07 Q125.112 1023.47 130.922 1023.47 Z" fill="#000000" fill-rule="evenodd" fill-opacity="1" /><path clip-path="url(#clip270)" d="M82.1494 824.946 L111.825 824.946 L111.825 828.881 L82.1494 828.881 L82.1494 824.946 Z" fill="#000000" fill-rule="evenodd" fill-opacity="1" /><path clip-path="url(#clip270)" d="M121.964 807.214 L140.32 807.214 L140.32 811.15 L126.246 811.15 L126.246 819.622 Q127.265 819.275 128.283 819.113 Q129.302 818.927 130.32 818.927 Q136.107 818.927 139.487 822.099 Q142.867 825.27 142.867 830.687 Q142.867 836.265 139.394 839.367 Q135.922 842.446 129.603 842.446 Q127.427 842.446 125.158 842.075 Q122.913 841.705 120.506 840.964 L120.506 836.265 Q122.589 837.4 124.811 837.955 Q127.033 838.511 129.51 838.511 Q133.515 838.511 135.853 836.404 Q138.191 834.298 138.191 830.687 Q138.191 827.075 135.853 824.969 Q133.515 822.863 129.51 822.863 Q127.635 822.863 125.76 823.279 Q123.908 823.696 121.964 824.576 L121.964 807.214 Z" fill="#000000" fill-rule="evenodd" fill-opacity="1" /><path clip-path="url(#clip270)" d="M130.922 593.416 Q127.311 593.416 125.482 596.981 Q123.677 600.522 123.677 607.652 Q123.677 614.758 125.482 618.323 Q127.311 621.865 130.922 621.865 Q134.556 621.865 136.362 618.323 Q138.191 614.758 138.191 607.652 Q138.191 600.522 136.362 596.981 Q134.556 593.416 130.922 593.416 M130.922 589.712 Q136.732 589.712 139.788 594.319 Q142.867 598.902 142.867 607.652 Q142.867 616.379 139.788 620.985 Q136.732 625.569 130.922 625.569 Q125.112 625.569 122.033 620.985 Q118.978 616.379 118.978 607.652 Q118.978 598.902 122.033 594.319 Q125.112 589.712 130.922 589.712 Z" fill="#000000" fill-rule="evenodd" fill-opacity="1" /><path clip-path="url(#clip270)" d="M121.964 373.46 L140.32 373.46 L140.32 377.395 L126.246 377.395 L126.246 385.867 Q127.265 385.52 128.283 385.358 Q129.302 385.173 130.32 385.173 Q136.107 385.173 139.487 388.344 Q142.867 391.515 142.867 396.932 Q142.867 402.511 139.394 405.613 Q135.922 408.691 129.603 408.691 Q127.427 408.691 125.158 408.321 Q122.913 407.951 120.506 407.21 L120.506 402.511 Q122.589 403.645 124.811 404.201 Q127.033 404.756 129.51 404.756 Q133.515 404.756 135.853 402.65 Q138.191 400.543 138.191 396.932 Q138.191 393.321 135.853 391.215 Q133.515 389.108 129.51 389.108 Q127.635 389.108 125.76 389.525 Q123.908 389.941 121.964 390.821 L121.964 373.46 Z" fill="#000000" fill-rule="evenodd" fill-opacity="1" /><path clip-path="url(#clip270)" d="M91.5706 187.208 L99.2095 187.208 L99.2095 160.842 L90.8993 162.509 L90.8993 158.249 L99.1632 156.583 L103.839 156.583 L103.839 187.208 L111.478 187.208 L111.478 191.143 L91.5706 191.143 L91.5706 187.208 Z" fill="#000000" fill-rule="evenodd" fill-opacity="1" /><path clip-path="url(#clip270)" d="M130.922 159.661 Q127.311 159.661 125.482 163.226 Q123.677 166.768 123.677 173.897 Q123.677 181.004 125.482 184.569 Q127.311 188.11 130.922 188.11 Q134.556 188.11 136.362 184.569 Q138.191 181.004 138.191 173.897 Q138.191 166.768 136.362 163.226 Q134.556 159.661 130.922 159.661 M130.922 155.958 Q136.732 155.958 139.788 160.564 Q142.867 165.147 142.867 173.897 Q142.867 182.624 139.788 187.231 Q136.732 191.814 130.922 191.814 Q125.112 191.814 122.033 187.231 Q118.978 182.624 118.978 173.897 Q118.978 165.147 122.033 160.564 Q125.112 155.958 130.922 155.958 Z" fill="#000000" fill-rule="evenodd" fill-opacity="1" /><polyline clip-path="url(#clip272)" style="stroke:#009af9; stroke-linecap:butt; stroke-linejoin:round; stroke-width:4; stroke-opacity:1; fill:none" points="
  240.392,591.031 250.698,608.143 261.003,596.176 271.309,663.337 281.615,572.259 291.92,511.061 302.226,672.087 312.532,614.672 322.838,878.244 333.143,679.673 
  343.449,533.277 353.755,587.552 364.06,538.336 374.366,644.383 384.672,610.113 394.978,661.145 405.283,577.558 415.589,588.4 425.895,630.408 436.201,686.133 
  446.506,618.085 456.812,601.828 467.118,582.563 477.423,657.83 487.729,546.146 498.035,564.475 508.341,593.858 518.646,614.561 528.952,619.305 539.258,592.356 
  549.564,610.508 559.869,612.034 570.175,609.193 580.481,606.453 590.786,608.586 601.092,606.314 611.398,609.611 621.704,609.277 632.009,604.376 642.315,612.546 
  652.621,617.538 662.926,551.036 673.232,613.365 683.538,596.475 693.844,594.871 704.149,585.519 714.455,525.115 724.761,617.342 735.067,694.869 745.372,448.872 
  755.678,626.152 765.984,683.933 776.289,614.835 786.595,669.059 796.901,647.022 807.207,628.333 817.512,516.638 827.818,696.307 838.124,583.415 848.429,578.839 
  858.735,642.919 869.041,599.508 879.347,606.356 889.652,614.919 899.958,609.811 910.264,608.461 920.57,604.391 930.875,615.108 941.181,609.488 951.487,593.185 
  961.792,610.814 972.098,577.314 982.404,616.29 992.71,610.252 1003.02,604.128 1013.32,608.302 1023.63,613.409 1033.93,600.655 1044.24,611.626 1054.54,602.004 
  1064.85,612.831 1075.16,613.53 1085.46,592.124 1095.77,605.273 1106.07,587.122 1116.38,601.421 1126.68,612.422 1136.99,597.396 1147.3,588.912 1157.6,664.336 
  1167.91,559.093 1178.21,531.205 1188.52,533.066 1198.82,400.754 1209.13,713.156 1219.44,671.602 1229.74,478.755 1240.05,904.086 1250.35,900.044 1260.66,300.831 
  1270.96,549.649 1281.27,615.333 1291.58,555.575 1301.88,648.946 1312.19,644.284 1322.49,630.129 1332.8,633.049 1343.1,582.626 1353.41,603.423 1363.72,604.746 
  1374.02,621.916 1384.33,601.436 1394.63,592.721 1404.94,616.144 1415.24,599.641 1425.55,622.3 1435.86,624.303 1446.16,635.226 1456.47,651.958 1466.77,644.358 
  1477.08,578.673 1487.38,607.22 1497.69,605.115 1508,606.52 1518.3,641.163 1528.61,609.106 1538.91,608.323 1549.22,633.643 1559.52,621.069 1569.83,596.973 
  1580.14,608.263 1590.44,608.629 1600.75,615.986 1611.05,628.967 1621.36,626.463 1631.66,608.114 1641.97,551.325 1652.28,568.137 1662.58,561.51 1672.89,557.079 
  1683.19,575.7 1693.5,490.8 1703.8,594.137 1714.11,604.082 1724.42,600.998 1734.72,597.798 1745.03,602.893 1755.33,660.746 1765.64,446.246 1775.94,696.704 
  1786.25,491.23 1796.56,270.686 1806.86,1384.24 1817.17,86.1857 1827.47,180.142 1837.78,724.164 1848.08,1070.74 1858.39,603.042 1868.7,500.707 1879,630.744 
  1889.31,654.107 1899.61,610.658 1909.92,598.935 1920.22,602.555 1930.53,598.1 1940.84,607.584 1951.14,602.058 1961.45,611.913 1971.75,600.825 1982.06,612.535 
  1992.36,612.034 2002.67,627.388 2012.98,618.202 2023.28,606.392 2033.59,616.287 2043.89,589.565 2054.2,607.981 2064.5,605.476 2074.81,626.944 2085.12,601.088 
  2095.42,611.728 2105.73,643.44 2116.03,560.728 2126.34,677.315 2136.64,552.149 2146.95,654.545 2157.26,473.753 2167.56,660.534 2177.87,720.161 2188.17,661.709 
  2198.48,564.222 2208.78,665.424 2219.09,622.544 2229.4,603.069 2239.7,455.89 2250.01,606.906 2260.31,558.847 2270.62,604.854 2280.93,557.727 2291.23,649.07 
  
  "/>
<path clip-path="url(#clip270)" d="
M2013.52 196.789 L2280.29 196.789 L2280.29 93.1086 L2013.52 93.1086  Z
  " fill="#ffffff" fill-rule="evenodd" fill-opacity="1"/>
<polyline clip-path="url(#clip270)" style="stroke:#000000; stroke-linecap:butt; stroke-linejoin:round; stroke-width:4; stroke-opacity:1; fill:none" points="
  2013.52,196.789 2280.29,196.789 2280.29,93.1086 2013.52,93.1086 2013.52,196.789 
  "/>
<polyline clip-path="url(#clip270)" style="stroke:#009af9; stroke-linecap:butt; stroke-linejoin:round; stroke-width:4; stroke-opacity:1; fill:none" points="
  2037.67,144.949 2182.6,144.949 
  "/>
<path clip-path="url(#clip270)" d="M2220.6 164.636 Q2218.79 169.266 2217.08 170.678 Q2215.36 172.09 2212.49 172.09 L2209.09 172.09 L2209.09 168.525 L2211.59 168.525 Q2213.35 168.525 2214.32 167.692 Q2215.29 166.858 2216.48 163.756 L2217.24 161.812 L2206.75 136.303 L2211.27 136.303 L2219.37 156.581 L2227.47 136.303 L2231.98 136.303 L2220.6 164.636 Z" fill="#000000" fill-rule="evenodd" fill-opacity="1" /></svg>
